<svg version="1.1" xmlns="http://www.w3.org/2000/svg" style="display: block;" viewBox="0 0 2048 2048" width="1920" height="1920" preserveAspectRatio="none">
<path transform="translate(0,0)" fill="rgb(0,0,0)" d="M 0 0 L 2048 0 L 2048 2048 L 0 2048 L 0 0 z"/>
<path transform="translate(0,0)" fill="rgb(254,254,254)" d="M 865.78 543.03 C 858.047 517.799 850.994 494.02 864.028 469.014 C 873.788 450.289 888.213 442.712 907.741 436.894 C 935.201 428.714 963.529 420.313 991.054 412.543 C 1006.33 408.23 1039.52 397.46 1053.63 396.636 C 1065.17 395.982 1076.68 398.458 1086.94 403.802 C 1111.57 416.727 1119.49 442.155 1127.09 466.993 C 1176.91 451.911 1227.33 438.425 1277.24 423.454 C 1305.63 414.936 1331.49 412.855 1359.13 426.133 C 1389.42 440.686 1419.12 483.531 1402.37 517.177 C 1399.49 522.964 1391.47 531.233 1385.26 534.206 C 1365.2 541.42 1344.19 547.021 1323.66 553.002 L 1205.8 587.283 L 830.538 696.249 C 830.484 700.057 830.276 704.417 830.582 708.156 C 877.523 707.208 927.228 707.951 974.278 707.946 L 1241.68 707.887 L 1376.67 707.792 C 1397.57 707.783 1419.99 707.354 1440.81 708.369 C 1447.81 708.71 1459.42 716.008 1464.59 720.728 C 1480.36 735.112 1479.9 755.275 1479.3 775.35 C 1478.59 798.796 1484.07 823.67 1465.23 840.786 C 1449.4 855.171 1434.9 853.37 1415.56 853.091 L 1368.74 1350.69 L 1354.7 1496.25 C 1352.96 1514.63 1350.93 1533.42 1349.43 1551.76 C 1347.34 1577.26 1341.85 1595.25 1324.83 1615.08 C 1307.1 1636.11 1281.63 1649.07 1254.2 1651.01 C 1230.13 1652.71 1191.27 1651.53 1166.54 1651.51 L 999.907 1651.54 L 854.647 1651.62 C 808.205 1651.51 771.54 1658.58 734.03 1626.47 C 694.778 1592.86 699.018 1546.37 694.302 1499.59 L 677.27 1320.3 C 665.61 1205.63 654.603 1090.88 644.249 976.081 C 640.514 934.692 636.218 894.428 633.453 852.955 C 615.233 853.968 598.978 854.904 583.963 841.885 C 562.482 823.261 570.526 789.649 569.086 764.64 C 567.783 742.019 575.589 719.468 598.025 711.016 C 607.4 707.485 614.502 707.599 624.477 707.306 C 618.955 684.79 621.985 661.025 632.981 640.615 C 641.691 624.393 654.857 610.999 670.926 602.01 C 686.305 593.335 728.614 582.789 748.065 577.223 L 865.78 543.03 z"/>
<path transform="translate(0,0)" fill="rgb(29,14,6)" d="M 811.624 701.918 L 830.538 696.249 C 830.484 700.057 830.276 704.417 830.582 708.156 L 821.697 708.494 L 820.133 703.845 C 816.982 701.246 816.811 702.148 811.624 701.918 z"/>
<path transform="translate(0,0)" fill="rgb(0,0,0)" d="M 792.284 707.947 C 797.976 705.697 805.616 703.677 811.624 701.918 C 816.811 702.148 816.982 701.246 820.133 703.845 L 821.697 708.494 C 811.895 708.196 802.09 708.014 792.284 707.947 z"/>
<path transform="translate(0,0)" fill="rgb(0,0,0)" d="M 673.635 853.045 C 693.362 853.418 713.263 853.446 733.002 853.32 C 946.818 851.962 1161.21 855.525 1374.96 853.214 C 1371.13 882.749 1369.16 918.076 1366.36 948.254 L 1348.46 1134.81 L 1324.47 1387.34 C 1319.62 1437.93 1313.46 1490.75 1309.83 1541.24 C 1308.34 1560.86 1307.1 1574.89 1293.55 1590.42 C 1282.4 1602.99 1266.75 1610.66 1249.99 1611.79 C 1224.67 1613.42 1183.81 1612.05 1157.52 1612.04 L 978.789 1612.07 L 856.792 1612.14 C 835.665 1612.16 813.385 1612.82 792.329 1611.22 C 779.976 1609.81 769.956 1604.29 760.817 1596.54 C 740.759 1579.53 740.898 1561.32 738.709 1537.24 L 734.22 1488.46 L 718.036 1322.49 L 689.579 1024.51 C 684.22 968.278 677.412 909.314 673.635 853.045 z"/>
<path transform="translate(0,0)" fill="rgb(254,254,254)" d="M 1021.34 924.088 C 1051.58 922.657 1045.09 958.197 1045.11 978.788 L 1045.3 1035.32 L 1045.24 1244.11 L 1045.25 1429.94 C 1045.26 1453.22 1046.56 1509.97 1042.95 1529.88 C 1038.75 1535.79 1036.02 1537.37 1029.36 1540.18 C 1018.71 1540.32 1006.01 1537.11 1004.52 1523.88 C 1003.14 1511.69 1003.91 1496.52 1003.9 1483.99 L 1003.95 1383.91 L 1003.99 1116.17 C 1003.99 1062.95 1003.85 1009.72 1004.02 956.494 C 1004.08 938.343 1003.08 931.575 1021.34 924.088 z"/>
<path transform="translate(0,0)" fill="rgb(254,254,254)" d="M 1217.79 924.159 C 1221.09 924.341 1224.44 924.688 1227.5 926.052 C 1232.3 928.192 1235.56 931.808 1237.52 936.614 C 1239.24 940.813 1239.61 944.382 1239.39 948.891 C 1235.64 1024.29 1228.86 1099.7 1223.79 1175.04 C 1220.99 1216.54 1203.18 1518.9 1198.52 1528.99 C 1195.57 1535.39 1189.47 1538.63 1183.08 1540.69 C 1157.65 1540.56 1159.7 1520.7 1160.98 1502.16 C 1163.75 1462.4 1166.37 1422.61 1169.01 1382.83 L 1188.09 1102.63 C 1191.65 1050.34 1194.99 998.024 1198.83 945.75 C 1199.87 931.59 1204.35 927.29 1217.79 924.159 z"/>
<path transform="translate(0,0)" fill="rgb(254,254,254)" d="M 826.164 924.178 C 842.008 923.79 848.968 931.905 849.989 947.183 C 852.586 986.028 855.147 1024.88 857.839 1063.72 L 874.788 1308.63 L 884.252 1449.5 C 885.541 1469.12 889.099 1509.4 887.927 1527.29 C 883.471 1534.63 879.955 1537.47 872.029 1540.18 C 868.484 1540.11 864.757 1540.25 861.384 1539.01 C 856.679 1537.29 852.598 1533.42 850.558 1528.85 C 845.98 1518.59 844.315 1459.82 843.213 1444.73 L 823.556 1159.22 C 819.887 1110.84 816.589 1062.43 813.663 1014 C 812.165 991.456 810.178 968.885 809.217 946.318 C 808.678 933.667 815.759 928.568 826.164 924.178 z"/>
<path transform="translate(0,0)" fill="rgb(0,0,0)" d="M 614.427 747.137 L 1174.42 747.241 L 1343.46 747.158 C 1369.76 747.159 1396.24 746.977 1422.54 747.071 C 1427.08 747.087 1433.79 747.357 1437.02 750.373 C 1441.15 761.242 1438.36 795.636 1438.85 809.078 C 1438.95 811.612 1436.25 812.783 1434.34 813.897 L 931.401 813.913 L 727.735 813.941 C 693.142 813.948 658.505 814.061 623.911 813.863 C 620.099 813.841 613.996 814.132 611.287 811.605 C 607.356 801.124 609.715 773.952 609.405 761.499 C 609.225 754.283 609.645 751.597 614.427 747.137 z"/>
<path transform="translate(0,0)" fill="rgb(0,0,0)" d="M 1314.73 456.337 C 1343.84 457.445 1358.81 469.735 1367.36 497.288 C 1347.44 504.791 1314.1 513.542 1293.11 519.617 L 1156.02 559.353 L 706.758 689.649 C 693.088 693.742 679.361 697.645 665.583 701.357 C 661.887 687.492 661.563 675.661 667.444 662.095 C 671.136 653.578 683.533 639.183 692.447 636.118 C 729.295 623.445 767.906 613.423 805.413 602.438 L 1046.19 532.661 L 1224.45 480.681 L 1275.84 465.841 C 1287.92 462.381 1302.43 457.748 1314.73 456.337 z"/>
<path transform="translate(0,0)" fill="rgb(0,0,0)" d="M 1052.21 437.142 C 1077.6 434.015 1082.13 459.029 1088.91 478.08 C 1072.45 482.071 1051.35 488.806 1034.58 493.689 L 927.825 524.862 L 904.442 531.807 L 903.296 527.665 C 898.236 509.292 888.893 484.627 914.323 477.134 C 960.116 463.642 1006.08 449.342 1052.21 437.142 z"/>
</svg>