<svg version="1.1" xmlns="http://www.w3.org/2000/svg" style="display: block;" viewBox="0 0 2048 2048" width="1024" height="1024" preserveAspectRatio="none">
<path transform="translate(0,0)" fill="rgb(0,0,0)" d="M 0 0 L 2048 0 L 2048 2048 L 0 2048 L 0 0 z"/>
<path transform="translate(0,0)" fill="rgb(254,254,254)" d="M 1375.79 729.332 C 1378.72 729.007 1383.96 728.936 1386.96 728.915 L 1516.01 728.846 C 1533.63 728.848 1551.28 728.839 1568.89 729.009 C 1588.77 729.201 1603.92 735.86 1617.98 749.799 C 1639.82 771.449 1638.22 794.743 1638.14 823.007 L 1638.07 872.914 L 1638.1 1048.05 L 1638.03 1635.42 C 1659.89 1635.75 1690.29 1631.27 1706.81 1644.27 C 1715.23 1650.89 1720.59 1660.66 1721.65 1671.32 C 1722.83 1682.04 1719.43 1692.76 1712.28 1700.83 C 1705.49 1708.55 1696.02 1713.66 1685.78 1713.98 C 1661.74 1714.73 1637.12 1714.4 1613.05 1714.38 L 1481.54 1714.38 L 1068.73 1714.36 L 594.296 1714.37 L 438.624 1714.38 C 415.068 1714.39 391.197 1714.48 367.628 1714.55 C 357.637 1714.58 346.294 1710.54 338.767 1703.7 C 330.964 1696.57 326.454 1686.53 326.304 1675.97 C 326.047 1665.17 329.584 1655.38 337.133 1647.54 C 351.133 1633.01 372.387 1635.3 391.14 1635.42 L 422.806 1635.47 L 422.771 1364.52 C 422.736 1333.73 419.978 1309.68 443.478 1285.77 C 467.833 1260.98 499.742 1265.62 532.5 1265.79 L 630.074 1265.71 C 650.615 1265.7 677.121 1264.31 696.806 1268.26 C 708.104 1271.13 717.894 1277.59 726.056 1285.46 C 749.692 1308.26 747.086 1335.09 747.101 1365.25 L 747.104 1421.2 L 746.977 1635.46 L 867.983 1635.51 L 867.977 1239.9 L 867.961 1127.5 C 867.952 1091.07 861.689 1053.09 889.65 1025.44 C 898.753 1016.48 910.232 1010.32 922.728 1007.69 C 937.204 1004.55 980.312 1005.78 997.353 1005.83 L 1112.24 1005.63 C 1136.08 1005.65 1152.78 1007.84 1170.92 1025.15 C 1198.82 1051.78 1192.71 1089.87 1192.68 1125.74 L 1192.6 1240.38 L 1192.44 1635.46 L 1313.26 1635.4 L 1313.34 1060.79 L 1313.27 885.577 C 1313.26 855.092 1312.31 823.384 1314.02 793.038 C 1315.97 758.662 1343.11 734.324 1375.79 729.332 z"/>
<path transform="translate(0,0)" fill="rgb(0,0,0)" d="M 1392.68 807.992 L 1558.81 807.902 C 1559.93 871.876 1558.96 938.716 1558.96 1002.84 L 1558.92 1375.03 L 1558.98 1554.28 L 1559.02 1606.61 C 1559.02 1613.75 1559.44 1628.95 1558.54 1635.54 L 1392.29 1635.46 L 1392.42 1053.96 C 1392.43 973.531 1390.9 888.004 1392.68 807.992 z"/>
<path transform="translate(0,0)" fill="rgb(0,0,0)" d="M 947.067 1085.05 L 1113.39 1085.13 C 1114.4 1146.43 1113.5 1210.19 1113.5 1271.69 L 1113.51 1630.99 C 1113.48 1634 1113.99 1632.69 1112.5 1635.12 C 1099.81 1636.29 1070.85 1635.49 1057.07 1635.5 L 946.995 1635.49 L 947.067 1085.05 z"/>
<path transform="translate(0,0)" fill="rgb(0,0,0)" d="M 502.016 1345.22 L 668.067 1345.23 C 668.052 1440.63 669.624 1540.43 667.946 1635.45 L 501.669 1635.45 C 503.101 1539.41 501.132 1441.57 502.016 1345.22 z"/>
<path transform="translate(0,0)" fill="rgb(226,75,73)" d="M 1072.8 333.27 C 1081.94 332.883 1091.22 333.239 1100.37 333.38 C 1174.65 334.528 1248.93 335.104 1323.21 336.028 C 1336 336.188 1346.32 339.322 1355.18 349.038 C 1362.97 357.567 1367.07 368.826 1366.59 380.363 C 1365.91 394.193 1362.87 415.271 1361.22 429.635 L 1351.31 518.174 L 1343.08 591.909 C 1340.87 611.104 1341.05 640.207 1325.83 653.301 C 1317.61 660.235 1306.93 663.534 1296.24 662.44 C 1284.92 661.314 1275.2 655.952 1268.11 646.987 C 1258.63 635.584 1260.08 620.632 1261.82 606.868 C 1267.49 562.148 1271.39 516.963 1277.45 472.309 L 708.169 981.574 L 618.721 1061.56 C 601.945 1076.6 577.51 1104.86 554.635 1104.76 C 531.346 1104.28 514.201 1086.84 514.753 1063.53 C 515.249 1042.56 534.007 1030.57 548.642 1017.46 L 592.277 978.507 L 729.529 856.045 L 1224.51 414.052 L 1127.52 412.974 C 1109.93 412.803 1070.91 414.816 1057.05 406.563 C 1048.13 401.237 1041.82 392.457 1039.6 382.307 C 1033.86 357.165 1048.61 338.612 1072.8 333.27 z"/>
</svg>