<svg version="1.1" xmlns="http://www.w3.org/2000/svg" style="display: block;" viewBox="0 0 2048 2048" width="1024" height="1024" preserveAspectRatio="none">
<path transform="translate(0,0)" fill="rgb(0,0,0)" d="M 0 0 L 2048 0 L 2048 2048 L 0 2048 L 0 0 z"/>
<path transform="translate(0,0)" fill="rgb(254,254,254)" d="M 1016.92 256.384 C 1047.97 252.859 1079.15 273.594 1105.95 287.045 C 1130.15 298.926 1154.49 310.537 1178.95 321.875 C 1251.16 355.492 1324.52 386.565 1398.91 415.036 C 1448.06 434.109 1498.04 451.687 1548.05 468.351 C 1562.43 473.141 1578.62 477.888 1591.78 485.277 C 1612.94 497.326 1628.41 517.339 1634.75 540.858 C 1639.56 558.755 1638.1 598.217 1638.1 618.02 L 1638.06 711.837 L 1638.06 861.938 C 1638.05 909.141 1638.43 951.773 1634.64 999.084 C 1623.92 1132 1583.24 1260.77 1515.66 1375.72 C 1424.58 1530.65 1282 1657.84 1126.04 1745.32 C 1106.17 1756.46 1052.27 1785.22 1030.36 1790.93 C 1029.62 1791.05 1028.87 1791.15 1028.12 1791.24 C 1015.24 1792.67 993.959 1781.71 982.16 1776.05 C 910.346 1741.61 840.709 1698.39 777.892 1649.61 C 580.176 1496.07 447.817 1285.84 417.472 1035.08 C 409.841 972.021 410.055 918.695 410.054 855.505 L 410.023 696.695 L 410.04 606.012 C 410.058 569.933 406.212 537.612 430.425 507.498 C 453.036 479.376 488.389 472.525 521.326 461.388 C 550.269 451.523 579.089 441.301 607.779 430.725 C 692.871 399.374 776.678 364.644 859.003 326.617 C 903.817 305.874 948.511 283.578 993 262.1 C 999.69 258.87 1009.53 257.208 1016.92 256.384 z"/>
<path transform="translate(0,0)" fill="rgb(0,0,0)" d="M 1016.09 293.146 C 1021.43 292.82 1031.23 292.298 1036.03 294.051 C 1053.75 300.521 1073.47 311.556 1090.38 319.979 C 1115.42 332.196 1140.56 344.181 1165.82 355.932 C 1250.81 395.304 1337.35 431.26 1425.22 463.712 C 1452.52 473.839 1479.93 483.645 1507.46 493.131 C 1527.69 499.973 1549.87 506.542 1569.47 514.734 C 1610.19 531.761 1601.38 584.853 1601.34 620.223 L 1601.33 730.671 L 1601.4 869.142 C 1601.41 897.145 1601.92 927.264 1600.78 955.111 C 1599.3 989.223 1596 1023.23 1590.89 1056.99 C 1579.81 1129.2 1559.45 1199.68 1530.33 1266.68 C 1452.91 1443.48 1317.64 1583.98 1155.08 1685.44 C 1119.76 1707.49 1066.25 1737.89 1027.23 1753.13 C 1016.32 1756.11 941.814 1714.38 928.406 1706.58 C 710.931 1580.08 545.654 1397.58 477.864 1152.91 C 463.703 1101.69 454.41 1049.25 450.108 996.289 C 446.12 950.449 446.46 910.016 446.474 864.136 L 446.535 726.483 L 446.495 617.727 C 446.468 519.572 444.907 525.733 536.94 494.583 C 565.817 484.748 594.557 474.516 623.152 463.891 C 704.758 433.599 785.249 400.383 864.468 364.307 C 894.139 350.6 923.654 336.556 953.005 322.176 C 967.878 314.838 1001.94 296.426 1016.09 293.146 z"/>
<path transform="translate(0,0)" fill="rgb(254,254,254)" d="M 774.708 583.489 L 1125.12 583.464 L 1231.57 583.414 C 1260.27 583.402 1294.22 578.518 1317.33 598.293 C 1347.02 623.688 1340.48 665.521 1340.48 700.951 L 1340.43 798.492 L 1340.39 1090.41 L 1340.32 1296.9 L 1340.36 1355.19 C 1340.41 1367.18 1341.31 1380.8 1339.83 1392.54 C 1335.15 1429.41 1310.55 1449.12 1274.99 1450.75 L 917.332 1450.76 L 817.045 1450.81 C 798.695 1450.82 778.01 1451.49 759.929 1449.5 C 749.819 1448.39 736.884 1441.29 729.484 1434.43 C 714.954 1420.95 707.997 1404.55 707.724 1384.74 C 707.471 1366.4 707.602 1348.08 707.601 1329.75 L 707.597 1226.92 L 707.569 914.447 L 707.591 730.91 L 707.633 675.31 C 707.653 665.279 707.305 650.559 708.392 641.016 C 709.924 627.131 715.908 614.114 725.449 603.911 C 739.354 589.063 754.936 584.263 774.708 583.489 z"/>
<path transform="translate(0,0)" fill="rgb(0,0,0)" d="M 771.158 620.392 L 1105.05 620.253 L 1218.26 620.161 C 1237.98 620.147 1258.25 619.835 1277.93 620.553 C 1283.03 620.739 1288.39 622.569 1292.58 625.57 C 1298.44 629.84 1302.38 636.239 1303.55 643.388 C 1305.26 653.568 1304.42 707.284 1304.4 720.012 L 1304.33 888.724 L 1304.35 1218.17 L 1304.37 1327.08 C 1304.37 1345.98 1304.53 1364.89 1304.21 1383.78 C 1303.92 1401.76 1295.63 1411.14 1277.96 1413.78 L 939.934 1413.77 L 828.413 1413.83 C 808.857 1413.84 789.422 1414.05 769.778 1413.48 C 757.215 1413.12 746.766 1403.97 744.866 1391.4 C 743.53 1382.56 744.092 1371.69 744.09 1362.6 L 744.12 1313.81 L 744.11 1143.79 L 744.113 820.613 L 744.046 711.899 C 744.035 692.205 743.931 672.513 744.185 652.82 C 744.428 634.05 751.574 622.771 771.158 620.392 z"/>
<path transform="translate(0,0)" fill="rgb(239,109,106)" d="M 819.675 661.45 C 848.645 660.674 880.684 661.318 909.884 661.319 L 1079.99 661.327 L 1179.08 661.232 C 1192.61 661.219 1219.84 660.48 1232.56 661.782 C 1238.65 662.374 1244.47 664.532 1249.48 668.047 C 1269.09 681.699 1264.99 706.912 1265.1 727.861 C 1264.45 754.27 1266.18 781.381 1264.56 807.699 C 1263.34 827.334 1246.75 837.595 1229.3 839.793 L 949.435 839.853 L 863.804 839.857 C 847.403 839.854 830.501 840.157 814.632 839.084 C 799.105 838.035 783.673 822.132 783.201 806.819 C 782.208 774.305 783.478 741.472 782.738 708.95 C 782.14 682.687 790.892 663.683 819.675 661.45 z"/>
<path transform="translate(0,0)" fill="rgb(0,0,0)" d="M 819.982 698.415 C 872.142 697.624 925.676 698.215 977.95 698.212 L 1228.22 698.342 L 1228.24 803.058 L 819.9 803.066 C 819.834 768.645 819.251 732.717 819.982 698.415 z"/>
<path transform="translate(0,0)" fill="rgb(239,109,106)" d="M 1162.06 1057.25 C 1183.07 1056.14 1229.42 1053.75 1247.03 1064.51 C 1268.39 1077.56 1265.09 1105.97 1265.09 1127.94 L 1265.05 1195.48 L 1265.11 1286.41 C 1265.12 1321.33 1273.84 1365.04 1227.86 1372.44 C 1208.93 1373.76 1182.43 1374.09 1163.58 1372.34 C 1120.67 1368.35 1124.21 1329.49 1124.19 1300.52 L 1124.19 1228.88 L 1124.17 1144.88 C 1124.17 1108.5 1115.76 1066.67 1162.06 1057.25 z"/>
<path transform="translate(0,0)" fill="rgb(254,254,254)" d="M 1157.59 881.327 C 1174.5 880.748 1197.1 881.806 1212.86 881.042 C 1259.32 877.712 1267.98 900.991 1265.03 942.26 C 1262.79 973.619 1276.63 1015.24 1231.66 1021.83 C 1212.25 1022.24 1154.56 1025.21 1140.54 1016.36 C 1132.52 1011.29 1126.65 1002.29 1125.01 992.98 C 1123.09 982.041 1123.27 924.902 1124.83 913.242 C 1125.68 906.861 1127.6 900.701 1131.36 895.409 C 1137.83 886.292 1146.97 882.867 1157.59 881.327 z"/>
<path transform="translate(0,0)" fill="rgb(0,0,0)" d="M 1160.95 917.948 L 1228.38 917.978 C 1228.23 937.466 1229.18 966.693 1227.99 985.426 L 1160.81 985.465 L 1160.95 917.948 z"/>
<path transform="translate(0,0)" fill="rgb(254,254,254)" d="M 814.482 881.262 C 827.546 880.956 848.037 881.652 860.157 881.026 C 903.855 878.17 928.242 885.376 923.984 935.663 C 921.421 965.923 936.2 1015.02 892.314 1021.61 C 875.15 1022.82 854.911 1021.01 838.213 1022 C 796.025 1024.48 779.613 1009.47 783.106 966.293 C 785.693 934.309 770.767 890.895 814.482 881.262 z"/>
<path transform="translate(0,0)" fill="rgb(0,0,0)" d="M 819.959 917.997 L 887.25 917.969 C 887.657 940.007 887.291 963.258 887.269 985.383 C 865.061 985.704 842.149 985.44 819.891 985.441 L 819.959 917.997 z"/>
<path transform="translate(0,0)" fill="rgb(254,254,254)" d="M 818.504 1232.47 C 833.163 1232.46 848.064 1232 862.642 1232.24 C 878.583 1232.83 897.35 1229.17 910.71 1240.25 C 932.164 1258.03 921.475 1299.44 924.077 1324.45 C 926.7 1349.65 916.226 1369.92 888.846 1372.7 C 874.506 1372.74 860.084 1373.04 845.652 1372.83 C 829.331 1372.18 810.223 1375.71 796.497 1364.68 C 779.202 1350.83 783.181 1327.92 783.255 1308.16 C 783.369 1277.2 775.177 1235.39 818.504 1232.47 z"/>
<path transform="translate(0,0)" fill="rgb(0,0,0)" d="M 819.943 1268.95 L 887.226 1268.93 C 887.377 1291.38 887.385 1313.83 887.25 1336.28 L 819.925 1336.2 L 819.943 1268.95 z"/>
<path transform="translate(0,0)" fill="rgb(254,254,254)" d="M 985.464 881.325 C 1010.39 880.488 1039.59 880.489 1064.38 881.919 C 1088.62 883.317 1096.73 910.283 1094.27 931.443 C 1090.61 962.81 1108.5 1015.06 1062.35 1021.63 C 1045.16 1022.59 984.576 1024.57 971.864 1017.14 C 963.507 1012.21 957.59 1004.02 955.544 994.532 C 951.252 974.436 955.418 933.596 954.859 911.553 C 954.467 896.085 970.835 884.005 985.464 881.325 z"/>
<path transform="translate(0,0)" fill="rgb(0,0,0)" d="M 990.7 917.973 L 1057.5 917.931 C 1057.56 926.105 1058.64 981.72 1056.76 985.362 L 990.323 985.473 C 990.193 962.972 990.318 940.471 990.7 917.973 z"/>
<path transform="translate(0,0)" fill="rgb(254,254,254)" d="M 815.676 1057.34 C 839.564 1056.01 868.261 1056.74 891.766 1057.55 C 922.815 1061.36 925.796 1088.87 923.88 1113.01 C 921.299 1145.53 936.236 1188.23 892.589 1196.95 C 866.459 1197.09 838.236 1198.21 812.615 1196.34 C 783.376 1192.1 781.45 1162.82 783.045 1140.24 C 785.318 1108.06 771.671 1064.7 815.676 1057.34 z"/>
<path transform="translate(0,0)" fill="rgb(0,0,0)" d="M 819.973 1093.58 C 842.201 1093.34 864.94 1093.6 887.206 1093.61 C 887.355 1115.87 887.376 1138.13 887.27 1160.39 L 819.837 1160.35 L 819.973 1093.58 z"/>
<path transform="translate(0,0)" fill="rgb(254,254,254)" d="M 989.413 1232.48 C 1009.06 1232.44 1066.05 1227.94 1080.55 1239.5 C 1088.51 1245.85 1092.8 1254.74 1093.96 1264.72 C 1095.14 1274.82 1094.05 1285.45 1094.08 1295.62 C 1094.13 1310.47 1095.96 1327.13 1093.74 1341.77 C 1092.73 1348.48 1090.36 1354.93 1086.03 1360.22 C 1079.14 1368.65 1070.2 1371.51 1059.83 1372.76 C 1045.65 1372.66 1031.14 1373.18 1017.09 1372.87 C 1000.63 1372.17 981.178 1376.2 967.356 1364.69 C 945.73 1346.69 957.058 1303.7 954.03 1278.29 C 951.199 1254.54 963.524 1234.06 989.413 1232.48 z"/>
<path transform="translate(0,0)" fill="rgb(0,0,0)" d="M 990.635 1268.92 L 1057.56 1268.93 C 1057.66 1291.36 1057.63 1313.79 1057.47 1336.22 C 1035.38 1335.94 1012.55 1336.25 990.415 1336.3 C 990.352 1313.84 990.426 1291.38 990.635 1268.92 z"/>
<path transform="translate(0,0)" fill="rgb(254,254,254)" d="M 986.822 1057.29 C 1006.77 1057.06 1062.18 1053.49 1077.22 1062.54 C 1084.74 1067.07 1090.55 1074.25 1092.64 1082.84 C 1095.93 1096.35 1095.53 1152.43 1093.42 1166.95 C 1092.69 1172 1091.39 1176.99 1088.66 1181.35 C 1082.99 1190.37 1073.95 1194.75 1063.9 1196.97 L 1014.87 1197.18 C 960.998 1197.35 951.891 1190.53 954.373 1133.51 C 955.694 1103.15 944.369 1064.39 986.822 1057.29 z"/>
<path transform="translate(0,0)" fill="rgb(0,0,0)" d="M 990.621 1093.7 L 1057.54 1093.63 C 1057.64 1115.9 1057.62 1138.17 1057.47 1160.44 C 1035.36 1160.12 1012.55 1160.37 990.39 1160.37 C 990.256 1138.15 990.333 1115.92 990.621 1093.7 z"/>
</svg>