<svg version="1.1" xmlns="http://www.w3.org/2000/svg" style="display: block;" viewBox="0 0 2048 2048" width="1920" height="1920" preserveAspectRatio="none">
<path transform="translate(0,0)" fill="rgb(0,0,0)" d="M 0 0 L 2048 0 L 2048 2048 L 0 2048 L 0 0 z"/>
<path transform="translate(0,0)" fill="rgb(254,254,254)" d="M 524.664 97.4383 C 577.589 96.312 633.734 97.2801 687 97.2402 L 1016.1 97.2838 L 1204.54 97.3767 C 1235.06 97.3946 1266.52 97.0248 1297.02 97.6974 C 1307.07 98.543 1314.09 100.372 1321.69 107.341 C 1342.21 126.16 1361.82 146.572 1381.53 166.267 L 1501.52 286.17 L 1631.99 416.548 C 1653.05 437.627 1674.75 458.639 1695.04 480.387 C 1709.38 495.761 1706.29 518.391 1706.72 537.711 C 1707 550.681 1706.76 564.2 1706.79 577.321 L 1706.85 719.542 L 1706.87 1159.69 L 1706.89 1593.92 L 1706.86 1710.47 C 1706.89 1776.67 1709.23 1826.32 1663.31 1880.67 C 1626.22 1924.58 1583.72 1945.35 1527.07 1950.89 C 1503.23 1951.53 1477.59 1950.84 1453.54 1950.88 L 1289.1 1950.89 L 845.694 1950.95 L 621.218 1950.99 L 558.57 1951.01 C 541.912 1951.05 521.598 1951.62 505.48 1949.28 C 468.984 1944.03 434.853 1928.11 407.368 1903.53 C 364.786 1865.43 341.682 1816.66 341.939 1759.41 C 342.076 1728.98 341.923 1698.39 341.929 1667.95 L 342.026 1465.38 L 341.963 845.987 L 341.985 447.342 L 341.943 328.468 C 341.938 310.573 341.077 278.833 343.145 262.006 C 348.079 224.676 364.27 189.735 389.561 161.838 C 425.427 121.988 471.333 100.246 524.664 97.4383 z"/>
<path transform="translate(0,0)" fill="rgb(0,0,0)" d="M 528.317 160.47 L 1015.1 160.424 C 1098.19 160.358 1183.07 159.447 1265.97 160.473 C 1265.85 166.342 1265.77 172.211 1265.72 178.081 L 1265.79 333.923 C 1265.76 396.005 1254.94 456.209 1302.49 504.005 C 1318.81 520.525 1339.47 532.089 1362.09 537.361 C 1385.94 543.003 1442.18 540.799 1469.22 540.806 L 1642.92 540.861 C 1642.03 586.517 1642.55 633.919 1642.61 679.633 L 1642.7 870.87 L 1642.73 1429.95 L 1642.77 1654.73 L 1642.79 1725.79 C 1642.82 1741.2 1643.36 1760.09 1641.87 1775.05 C 1639.97 1795.33 1632.69 1814.73 1620.79 1831.26 C 1598.88 1862.09 1570.11 1879.67 1533.1 1885.74 C 1530.79 1886.1 1528.46 1886.37 1526.12 1886.55 C 1509.23 1887.99 1481.28 1887.09 1463.45 1887.08 L 1346.6 1887.01 L 973.711 1886.99 L 666.436 1887.03 L 572.963 1887.14 C 557.175 1887.16 532.611 1887.85 517.45 1886.09 C 492.599 1883.21 469.215 1872.83 450.408 1856.33 C 425.974 1835.17 407.406 1803.96 406.27 1771.5 C 405.196 1740.84 405.805 1707.72 405.856 1676.93 L 405.839 1505.29 L 405.87 944.437 L 405.854 492.225 L 405.874 349.694 C 405.879 324.826 404.228 295.74 406.751 271.514 C 413.429 207.4 467.272 164.851 528.317 160.47 z"/>
<path transform="translate(0,0)" fill="rgb(254,254,254)" d="M 653.419 1199.13 C 661.087 1198.28 674.668 1198.61 682.744 1198.6 L 734.358 1198.61 L 899.336 1198.64 L 1225.64 1198.71 C 1277.61 1198.73 1329.59 1198.75 1381.56 1198.66 C 1398.37 1198.62 1412.38 1201.54 1419.14 1219.04 C 1422.29 1227.08 1422 1236.06 1418.34 1243.88 C 1413.83 1253.38 1405.72 1257.79 1396.39 1261.18 C 1388.54 1262.12 1376.32 1261.79 1368.15 1261.81 L 1317.59 1261.82 L 1156.99 1261.81 L 840.601 1261.82 C 783.26 1261.85 725.864 1261.69 668.524 1261.83 C 662.805 1261.84 652.412 1261.44 647.25 1259.19 C 639.246 1255.71 632.99 1249.15 629.91 1240.98 C 622.016 1220.45 634.597 1205.71 653.419 1199.13 z"/>
<path transform="translate(0,0)" fill="rgb(254,254,254)" d="M 652.24 1332.22 C 668.903 1330.32 710.999 1331.76 729.301 1331.72 L 898.161 1331.6 L 1224.97 1331.72 C 1277.97 1331.73 1331.07 1331.64 1384.07 1331.63 C 1389.53 1331.9 1396.95 1331.78 1401.96 1334.05 C 1421.24 1342.81 1428.66 1367.11 1413.29 1383.34 C 1407.1 1389.88 1404.02 1391.28 1395.62 1393.9 C 1380.45 1395.88 1336.56 1394.74 1318.92 1394.72 L 1162.98 1394.67 L 843.611 1394.55 L 713.772 1394.49 C 696.909 1394.48 680.046 1394.81 663.178 1394.76 C 648.043 1394.72 635.789 1389.22 629.638 1374.57 C 626.564 1367.29 626.578 1359.08 629.679 1351.81 C 634.324 1340.72 641.9 1336.31 652.24 1332.22 z"/>
<path transform="translate(0,0)" fill="rgb(254,254,254)" d="M 654.593 748.264 C 678.738 746.579 719.485 747.958 745.118 747.964 L 924.436 747.93 L 1221.42 747.932 C 1274.85 747.914 1328.39 747.835 1381.82 747.972 C 1388.38 748.275 1396.14 748.107 1402.21 750.82 C 1417.78 757.784 1426.37 777.913 1418.1 793.401 C 1413.29 802.396 1405.58 807.186 1395.83 810.052 C 1387.39 811.209 1373.19 810.891 1364.17 810.914 L 1312.51 810.862 L 1150.15 810.857 L 801.505 810.717 C 756.032 810.581 710.379 811.285 664.891 810.881 C 659.542 810.834 649.527 809.755 644.912 807.415 C 637.235 803.571 631.478 796.737 628.992 788.518 C 623.097 768.983 635.773 752.868 654.593 748.264 z"/>
<path transform="translate(0,0)" fill="rgb(254,254,254)" d="M 654.575 881.25 C 688.98 879.58 734.063 880.856 769.715 880.844 L 984.925 880.8 L 1249.06 880.829 C 1294.12 880.821 1339.39 880.703 1384.46 880.888 C 1389.75 880.909 1398.24 881.703 1402.89 883.9 C 1410.67 887.635 1416.64 894.332 1419.44 902.494 C 1422.2 910.482 1421.54 919.256 1417.61 926.738 C 1412.78 936.017 1405.11 940.05 1395.69 942.972 C 1386.91 944.065 1374.26 943.735 1365.25 943.736 L 1315.08 943.691 L 1152.02 943.662 L 834.435 943.646 C 778.219 943.687 721.882 943.591 665.661 943.733 C 659.035 943.75 650.633 943.261 644.738 940.259 C 637.084 936.379 631.383 929.499 628.993 921.258 C 623.373 901.842 635.995 885.971 654.575 881.25 z"/>
<path transform="translate(0,0)" fill="rgb(229,81,81)" d="M 1328.59 201.412 C 1335.85 207.418 1348.33 220.856 1355.54 228.038 L 1414.68 287.319 L 1605.61 478.186 C 1555.69 477.533 1505.65 478.17 1455.71 477.895 C 1436.71 477.587 1417.61 478.518 1398.62 477.961 C 1316.86 475.56 1328.56 407.099 1328.69 350.112 L 1328.59 201.412 z"/>
<path transform="translate(0,0)" fill="rgb(41,24,2)" d="M 5.04836 3.98269 L 11.0955 4.11208 C 14.2227 5.66712 14.0182 5.52031 15.8196 8.52484 C 16.2926 12.2492 16.7021 13.1498 15.0789 16.5715 C 10.8507 17.6053 9.789 18.0044 6.37948 16.301 C 4.36773 12.7659 4.98948 8.20707 5.04836 3.98269 z"/>
</svg>