<svg version="1.1" xmlns="http://www.w3.org/2000/svg" style="display: block;" viewBox="0 0 1172 2048" width="1172" height="2048" preserveAspectRatio="none">
<path transform="translate(0,0)" fill="rgb(4,5,3)" d="M 0 0 L 1172 0 L 1172 659.471 L 1172 705.777 L 1172 2048 L 0 2048 L 0 0 z"/>
<path transform="translate(0,0)" fill="rgb(249,250,250)" d="M 450.05 1279.98 C 442.952 1272.34 433.749 1260.32 426.984 1251.95 L 384.875 1199.66 L 263.935 1050.66 L 105.669 855.575 C 80.2468 824.083 53.7196 792.958 29.4255 760.747 C -24.5893 688.501 9.93633 585.544 96.9557 561.095 C 125.359 553.115 162.853 555.887 192.895 555.916 L 283.746 555.992 L 594.068 555.948 L 899.292 555.935 L 996.926 555.978 C 1013.93 555.99 1036.32 555.408 1052.89 556.536 C 1072.2 557.66 1090.99 563.185 1107.84 572.688 C 1144.37 592.999 1160.85 620.564 1172 659.471 L 1172 705.777 C 1158.15 755.932 1140.09 771.478 1108.01 810.999 L 1033.94 902.631 L 835.425 1147.25 C 800.742 1189.88 761.139 1236.82 727.97 1279.9 L 728.062 1574.98 C 727.975 1626.82 709.953 1664.09 662.917 1689.41 C 632.44 1705.82 603.061 1700.27 570.157 1701.29 C 536.862 1702.32 505.832 1690.41 482.352 1666.55 C 467.517 1651.68 457.253 1632.87 452.774 1612.35 C 448.804 1594.07 449.731 1573.19 449.756 1554.38 L 449.824 1491.5 L 450.05 1279.98 z"/>
<path transform="translate(0,0)" fill="rgb(4,5,3)" d="M 127.244 559.416 C 202.864 560.245 279.597 559.396 355.307 559.384 L 785.428 559.485 L 970.399 559.438 L 1024.35 559.523 C 1035.4 559.553 1050.13 559.257 1060.84 560.669 C 1084.62 563.629 1107.03 573.397 1125.38 588.797 C 1150.78 609.529 1166.78 639.607 1169.77 672.259 C 1174.55 724.911 1149.47 753.895 1118.85 792.018 C 1086.49 832.291 1053.74 872.355 1021.26 912.524 L 823.152 1156.73 C 790.555 1196.88 757.041 1239.25 724.099 1278.88 L 724.089 1352.69 L 724.107 1513.68 C 724.141 1540.89 726.77 1587.23 721.305 1611.73 C 709.936 1662.69 660.404 1699.16 608.38 1697.87 C 560.184 1696.67 524.149 1703.41 486.184 1665.51 C 471.031 1650.63 460.561 1631.63 456.063 1610.87 C 452.12 1592.77 453.144 1574.19 453.149 1555.69 L 453.174 1496.15 L 453.113 1279.04 C 440.697 1262.38 425.206 1243.93 412.037 1227.68 L 340.279 1139.31 L 144.216 897.415 L 66.5801 801.811 C 54.847 787.287 35.1834 764.545 25.9422 749.792 C 15.8479 733.533 9.56059 715.203 7.55057 696.171 C 4.06748 664.176 13.5033 632.115 33.7625 607.108 C 59.024 575.823 88.3165 563.621 127.244 559.416 z"/>
<path transform="translate(0,0)" fill="rgb(249,250,250)" d="M 127.602 605.453 C 130.066 605.354 132.532 605.29 134.998 605.262 L 760.459 605.183 L 956.502 605.259 L 1016.57 605.229 C 1048.76 605.238 1076.1 602.746 1100.92 627.464 C 1122.74 648.854 1130.33 680.878 1120.43 709.788 C 1112.88 731.168 1079.96 767.63 1064.96 785.989 L 993.726 873.724 L 755.91 1167.06 L 713.287 1219.25 C 703.792 1230.83 686.699 1247.93 681.168 1261.58 C 675.674 1275.13 678.33 1385.61 678.347 1408.14 L 678.386 1529.46 C 678.438 1544.83 679.631 1586.17 676.83 1599.6 C 674.215 1612.08 668.012 1623.54 658.983 1632.55 C 632.984 1658.8 603.658 1650.72 570.503 1652.26 C 550.432 1653.19 532.695 1647.73 518.169 1633.07 C 508.923 1623.92 502.711 1612.15 500.373 1599.35 C 498.371 1588.5 498.924 1570.98 498.96 1559.41 L 499.015 1505.84 L 498.978 1291.47 L 570.552 1291.35 C 583.279 1291.34 594.98 1291.64 607.9 1290.45 C 633.365 1288.1 633.947 1250.61 610.833 1246.18 C 598.884 1243.89 579.48 1245.05 566.591 1245.06 L 484.49 1245.19 L 195.179 887.88 L 111.819 785.315 C 96.3971 766.526 79.4191 746.77 65.0375 727.218 C 58.6621 718.551 53.7854 700.934 52.9576 690.212 C 51.2415 669.255 57.9838 648.483 71.6806 632.529 C 86.411 615.478 105.387 607.135 127.602 605.453 z"/>
<path transform="translate(0,0)" fill="rgb(4,5,3)" d="M 129.308 660.185 C 177.25 658.83 231.895 660.087 280.176 660.094 L 572.434 660.065 L 886.099 660.062 C 936.878 660.064 987.657 660.074 1038.43 660.015 C 1050.12 660.001 1062.04 662.544 1066.52 674.744 C 1068.73 680.855 1068.37 687.604 1065.52 693.447 C 1061.87 700.975 1057.15 703.654 1049.62 706.28 C 1037.5 707.189 1020.5 706.752 1008.02 706.74 L 937.987 706.635 L 718.9 706.646 L 321.077 706.636 C 261.165 706.617 201.259 706.721 141.35 706.867 C 128.747 706.898 115.103 705.215 110.77 691.335 C 108.842 684.976 109.584 678.106 112.825 672.305 C 116.774 665.177 121.763 662.361 129.308 660.185 z"/>
</svg>