<svg version="1.1" xmlns="http://www.w3.org/2000/svg" style="display: block;" viewBox="0 0 2048 2048" width="1920" height="1920" preserveAspectRatio="none">
<path transform="translate(0,0)" fill="rgb(0,0,0)" d="M 0 0 L 2048 0 L 2048 2048 L 0 2048 L 0 0 z"/>
<path transform="translate(0,0)" fill="rgb(254,254,254)" d="M 1484.85 1290.12 L 1484.89 1117 L 1484.86 1054.98 C 1484.84 1044.49 1484.59 1033.93 1484.94 1023.44 C 1485.68 995.324 1512.56 979.284 1538.04 990.201 C 1547.52 994.262 1555.99 1004.75 1558.32 1014.78 C 1559.24 1018.76 1559.39 1026.35 1559.43 1030.55 C 1559.66 1054.56 1559.65 1078.6 1559.7 1102.62 L 1559.67 1322.1 L 1559.78 1448.22 C 1559.77 1469.19 1560.58 1500.04 1558.61 1520.12 C 1556.46 1543 1549.74 1565.21 1538.83 1585.44 C 1515.51 1628.45 1475.98 1660.35 1429.02 1674.08 C 1406.15 1680.82 1386.7 1681.68 1363.11 1681.52 C 1330.49 1681.3 1297.76 1681.11 1265.13 1681.27 L 965.02 1681.52 L 765.365 1681.58 C 729.531 1681.67 691.367 1682.99 655.82 1680.85 C 567.305 1675.53 491.544 1599.2 489.596 1510.03 C 488.974 1481.57 489.385 1452.74 489.359 1424.11 L 489.298 1257.08 L 489.346 1105.1 C 489.342 1079.44 489.083 1053.76 489.524 1028.11 C 489.891 1006.71 498.171 992.541 519.892 987.203 C 522.193 987.003 524.467 986.992 526.774 987.027 C 543.075 987.276 555.485 995.531 561.085 1011.02 C 566.673 1026.47 563.974 1084.65 563.959 1105.17 L 564.022 1389.71 L 563.922 1465.36 C 563.867 1508.75 560.701 1542.11 593.673 1575.62 C 607.056 1589.3 623.868 1599.13 642.352 1604.1 C 665.604 1610.22 704.368 1608.24 729.877 1608.21 C 765.54 1608.06 801.203 1608.14 836.864 1608.46 C 836.842 1607.31 836.827 1606.15 836.82 1605 L 836.628 1321.92 L 836.575 1249.24 C 836.573 1235.39 835.891 1214.12 838.307 1201.17 C 842.109 1181.71 851.692 1163.85 865.803 1149.92 C 903.092 1112.56 951.838 1120.94 1000.45 1121.08 L 1104.08 1120.95 C 1111.19 1120.97 1117.65 1121.14 1124.81 1121.86 C 1167.35 1126.11 1203.76 1161.37 1210.45 1203.39 C 1213.02 1219.55 1212.09 1239.24 1212.1 1256 L 1212.05 1333.23 L 1211.83 1608.73 C 1262.37 1608.04 1312.91 1607.91 1363.45 1608.32 C 1399.79 1608.63 1427.9 1602.09 1454.69 1575.4 C 1468.11 1562.01 1477.57 1545.16 1482.03 1526.72 C 1486.35 1508.02 1484.85 1460.34 1484.85 1439.18 L 1484.85 1290.12 z"/>
<path transform="translate(0,0)" fill="rgb(0,0,0)" d="M 933.187 1196.22 C 934.61 1196.13 936.058 1196.02 937.486 1196.02 C 989.413 1195.96 1041.34 1195.94 1093.27 1195.96 C 1099.86 1195.96 1106.4 1195.86 1112.93 1196.76 C 1117.47 1197.38 1122.92 1198.2 1126.45 1201.4 C 1131.11 1205.61 1134.78 1210.88 1135.39 1217.25 C 1136.47 1231.81 1136.02 1246.66 1135.98 1261.26 L 1135.89 1340.34 L 1135.92 1608.76 C 1129.97 1608.24 1122.59 1608.34 1116.5 1608.27 C 1048.49 1607.96 980.488 1608.12 912.485 1608.78 C 913.598 1575.63 912.839 1538.41 912.852 1504.9 L 912.884 1318.86 C 912.87 1287.15 912.554 1255.42 912.791 1223.72 C 912.907 1208.23 919.748 1201.73 933.187 1196.22 z"/>
<path transform="translate(0,0)" fill="rgb(254,254,254)" d="M 1015.38 365.351 C 1060.52 361.769 1080.55 382.873 1111.07 411.216 L 1157.09 454.172 L 1283.9 570.389 L 1567.83 831.828 L 1643.35 901.402 C 1657.32 914.197 1671.55 927.013 1685.31 940.04 C 1690.73 945.172 1694.81 951.204 1696.87 958.466 C 1699.86 968.755 1698.47 979.822 1693.02 989.049 C 1687.79 997.746 1678.49 1004.68 1668.54 1006.82 C 1643.39 1012.23 1620.67 983.157 1603.33 967.147 C 1574.99 941.109 1546.8 914.925 1518.73 888.597 L 1171.01 567.984 L 1081.67 485.033 C 1069.91 474.006 1046.12 449.45 1033.26 441.422 C 1028.41 439.558 1019.44 438.688 1015.42 441.581 C 1005.29 448.874 993.798 460.27 984.609 468.798 L 915.864 532.822 L 563.201 858.025 L 458.272 954.971 C 443.167 968.804 428.608 983.051 413.099 996.461 C 399.227 1008.46 382.099 1011.38 366.342 1000.68 C 357.767 994.901 352.053 985.749 350.626 975.507 C 349.102 965.019 351.802 954.355 358.134 945.857 C 366.344 934.942 401.397 904.688 413.392 893.708 L 539.859 777.741 L 827.448 512.637 L 915.579 431.516 C 927.937 420.116 940.676 408.711 952.978 397.302 C 972.579 379.124 988.238 368.633 1015.38 365.351 z"/>
</svg>