<svg version="1.1" xmlns="http://www.w3.org/2000/svg" style="display: block;" viewBox="0 0 2048 2048" width="1920" height="1920" preserveAspectRatio="none">
<path transform="translate(0,0)" fill="rgb(0,0,0)" d="M 0 0 L 2048 0 L 2048 2048 L 0 2048 L 0 0 z"/>
<path transform="translate(0,0)" fill="rgb(254,254,254)" d="M 486.588 864.415 C 500.9 862.263 531.009 863.897 546.896 863.939 L 658.151 863.931 L 1022.27 863.895 L 1393.51 863.933 L 1504.54 863.975 C 1519.81 863.988 1535.2 864.274 1550.45 864.101 C 1636.24 863.129 1714.78 931.959 1723.64 1018.42 C 1728.53 1064.64 1714.5 1110.87 1684.77 1146.59 C 1654.2 1183.62 1610.78 1205.1 1563.24 1209.62 C 1542.26 1210.88 1511.38 1209.96 1489.77 1209.95 L 1351.92 1209.94 L 916.969 1209.91 L 623.34 1209.92 L 534.225 1209.99 C 476.626 1210.03 434.898 1209.86 387.547 1170.24 C 267.12 1069.45 329.606 877.398 486.588 864.415 z"/>
<path transform="translate(0,0)" fill="rgb(0,0,0)" d="M 585.995 922.498 L 1263.03 922.74 L 1464.25 922.659 L 1524.07 922.594 C 1537.79 922.583 1553.95 922.138 1567.36 924 C 1591.14 927.35 1613.28 938.055 1630.67 954.614 C 1694.47 1015.93 1669.12 1116.67 1587.61 1145.41 C 1566.04 1153.02 1544.48 1151.73 1522.03 1151.61 C 1502.04 1151.44 1482.05 1151.41 1462.06 1151.52 L 779.426 1151.38 L 563.807 1151.37 C 541.854 1151.17 501.654 1153.13 482.284 1150.42 C 457.78 1147.07 434.976 1136.01 417.161 1118.85 C 395.181 1097.83 382.664 1068.8 382.472 1038.38 C 381.987 1008.06 393.884 978.849 415.417 957.494 C 450.006 922.701 480.661 922.678 525.173 922.575 L 585.995 922.498 z"/>
<path transform="translate(0,0)" fill="rgb(254,254,254)" d="M 491.526 1007.15 C 504.79 1006.36 525.233 1006.96 539.011 1006.95 L 631.605 1006.94 L 919.939 1007 L 1336.79 1006.97 L 1477.77 1006.92 C 1502.65 1006.92 1527.56 1006.79 1552.43 1007.06 C 1565.51 1007.2 1578.57 1018.93 1580.9 1031.77 C 1582.37 1039.54 1580.64 1047.56 1576.11 1054.03 C 1570.43 1062.09 1563.7 1065.04 1554.41 1066.75 C 1517.24 1068.22 1468.35 1066.32 1430.57 1066.37 L 1149.26 1066.61 L 506.575 1066.91 C 489.89 1066.77 475.082 1065.28 468.698 1046.51 C 466.191 1039.05 466.742 1030.9 470.23 1023.85 C 475.014 1014.23 481.829 1010.31 491.526 1007.15 z"/>
<path transform="translate(0,0)" fill="rgb(254,254,254)" d="M 488.389 396.416 C 489.569 396.321 490.751 396.243 491.934 396.183 C 514.932 394.973 548.687 396.109 572.221 396.154 L 719.425 396.172 L 1164.14 396.162 L 1436.82 396.177 L 1516.3 396.086 C 1535.55 396.073 1556.79 395.411 1575.69 398.046 C 1609.74 402.883 1641.55 417.857 1666.97 441.02 C 1695.41 466.591 1715.24 502.401 1722.08 540.001 C 1740.48 641.203 1661.27 737.147 1559.08 741.207 C 1483.31 743.07 1401.6 741.582 1325.48 741.645 L 841.024 741.434 L 592.415 741.644 L 523.842 741.536 C 513.219 741.529 502.559 741.649 491.944 741.398 C 454.328 740.51 415.593 725.792 386.848 701.678 C 351.376 672.18 329.171 629.723 325.178 583.761 C 321.336 538.383 335.749 493.346 365.225 458.632 C 397.59 420.774 438.938 400.176 488.389 396.416 z"/>
<path transform="translate(0,0)" fill="rgb(0,0,0)" d="M 497.674 454.477 C 583.911 455.624 672.458 454.479 758.856 454.464 L 1252.56 454.594 L 1457.28 454.628 L 1521.09 454.442 C 1535.52 454.398 1552.03 453.73 1566.23 455.453 C 1617.48 461.669 1660.29 504.68 1666.02 555.992 C 1669.33 585.881 1660.62 615.861 1641.81 639.321 C 1619.24 667.293 1592.88 679.471 1557.94 683.004 C 1479.14 684.201 1397.98 683.138 1318.94 683.145 L 837.169 683.088 L 595.82 683.228 L 527.707 683.179 C 484.531 683.292 454.51 684.754 419.998 653.456 C 397.228 632.89 383.66 604.049 382.334 573.396 C 381.285 543.005 392.398 513.451 413.21 491.281 C 435.917 466.879 464.864 455.793 497.674 454.477 z"/>
<path transform="translate(0,0)" fill="rgb(254,254,254)" d="M 492.756 539.135 C 521.261 537.838 559.532 538.925 588.969 538.926 L 773.244 538.899 L 1284.34 538.85 L 1453.72 538.952 C 1484.95 538.928 1516.1 538.817 1547.4 538.984 C 1560.75 538.53 1575.44 544.059 1579.75 558.162 C 1585.91 578.344 1575 592.408 1556.46 597.919 C 1544.5 598.656 1526.04 598.026 1513.74 597.999 L 1435.5 597.99 L 1180.9 598.031 L 736.586 598.061 C 659.406 598.095 582.17 597.989 504.995 598.124 C 498.498 597.643 487.978 598.358 482.391 594.758 C 457.525 578.732 464.741 545.836 492.756 539.135 z"/>
<path transform="translate(0,0)" fill="rgb(254,254,254)" d="M 489.679 1333.42 C 543.925 1331.44 608.021 1332.94 663.006 1332.94 L 994.392 1332.93 L 1294.99 1333 L 1393.27 1332.97 C 1411.24 1332.95 1429.38 1332.83 1447.35 1333.1 C 1455.62 1333.23 1463.46 1337.01 1468.93 1343.31 C 1474.14 1349.3 1476.77 1357.12 1476.23 1365.05 C 1475.09 1380.19 1461.64 1391.95 1447.15 1391.92 C 1422.12 1391.88 1396.99 1391.85 1371.97 1391.85 L 1208.86 1391.73 L 744.5 1391.88 L 569.576 1391.84 C 542.159 1391.84 506.29 1389.91 479.651 1393.39 C 426.638 1400.32 384.945 1450.8 382.461 1502.37 C 381.165 1532.48 391.954 1561.86 412.428 1583.97 C 452.094 1625.15 487.918 1621.45 539.997 1621.3 L 634.621 1621.24 L 1034.5 1621.14 L 1150.6 1621.14 C 1172.67 1621.1 1195.14 1620.28 1217.07 1622.19 C 1227.23 1623.08 1239.51 1635.15 1240.4 1645.28 C 1244.19 1688.77 1197.06 1680.7 1168.82 1680.38 C 1146.08 1680.3 1123.34 1680.35 1100.6 1680.54 L 818.552 1680.46 L 598.444 1680.52 L 528.314 1680.59 C 510.557 1680.63 489.68 1681.62 472.345 1678.96 C 394.866 1667.1 332.23 1602.48 325.332 1523.89 C 320.834 1477.8 335.205 1431.86 365.165 1396.55 C 398.328 1357.64 439.026 1337.27 489.679 1333.42 z"/>
<path transform="translate(0,0)" fill="rgb(254,254,254)" d="M 1655.36 1323.29 C 1665.02 1323.34 1674.52 1325.62 1681.62 1332.37 C 1697.95 1347.91 1696.83 1370.75 1681.45 1386.18 C 1663.28 1404.42 1645.35 1422.07 1627.37 1440.07 L 1516.32 1551.29 L 1457.47 1610.22 C 1446.07 1621.78 1435.35 1633.8 1423.01 1644.46 C 1411.99 1654.55 1393.03 1656.86 1380.33 1648.5 C 1368.06 1640.43 1357.7 1627.64 1347.09 1617.37 C 1326.96 1597.88 1307.68 1577.34 1287.57 1557.83 C 1272.5 1542.69 1249.47 1525.9 1248.42 1505.22 C 1247.9 1495.68 1251.32 1486.34 1257.87 1479.39 C 1265.05 1471.66 1275.17 1467.34 1285.72 1467.51 C 1306.52 1467.69 1321.78 1487.94 1335.82 1501.71 C 1357.28 1522.7 1378.54 1543.9 1399.6 1565.3 C 1419.03 1547.44 1442.84 1522.28 1461.67 1503.41 L 1570.74 1394.43 L 1611.16 1353.95 C 1625.61 1339.48 1634.14 1326.3 1655.36 1323.29 z"/>
<path transform="translate(0,0)" fill="rgb(254,254,254)" d="M 490.118 1477.21 C 512.995 1475.61 555.069 1476.75 579.355 1476.78 L 740.5 1476.8 L 997.748 1476.74 C 1038.41 1476.73 1079.08 1476.91 1119.74 1476.63 C 1134.24 1476.53 1146.55 1480.2 1152.94 1494.53 C 1156.37 1502.18 1156.41 1510.92 1153.05 1518.6 C 1149 1528.09 1141.36 1532.08 1132.56 1535.82 C 1114.63 1537.37 1074.21 1536.21 1054.78 1536.19 L 901.789 1536.16 L 618.224 1536.19 C 579.263 1536.18 540.339 1535.91 501.278 1536.53 C 477.278 1536.92 460.144 1518.09 469.938 1494.42 C 473.578 1485.62 481.768 1480.82 490.118 1477.21 z"/>
<path transform="translate(0,0)" fill="rgb(50,30,3)" d="M 4.87833 4.142 C 10.4872 3.95766 14.2106 2.96068 18.2238 7.34556 C 18.5734 11.2864 18.4364 10.1076 16.5466 14.1828 C 12.6236 16.5169 10.1171 19.169 5.9514 16.5653 C 4.03612 12.6818 4.7248 8.63329 4.87833 4.142 z"/>
</svg>