<svg version="1.1" xmlns="http://www.w3.org/2000/svg" style="display: block;" viewBox="0 0 2048 2048" width="1920" height="1920" preserveAspectRatio="none">
<path transform="translate(0,0)" fill="rgb(0,0,0)" d="M 0 0 L 2048 0 L 2048 2048 L 0 2048 L 0 0 z"/>
<path transform="translate(0,0)" fill="rgb(254,254,254)" d="M 1476.34 364.41 C 1495.85 362.939 1517.71 366.873 1535.83 374.175 C 1545.78 378.218 1555.15 383.584 1563.67 390.129 C 1579.33 401.968 1596.67 420.175 1610.91 434.241 C 1621.53 444.737 1638.94 461.176 1647.78 472.535 C 1654.73 481.491 1660.48 491.312 1664.89 501.751 C 1685.06 550.077 1671.35 603.616 1635.34 640.564 C 1610.08 666.483 1584.48 692.136 1558.87 717.713 L 1427.54 848.935 L 1028.08 1248.34 L 813.658 1462.82 L 752.014 1524.6 C 745.772 1530.86 723.788 1553.64 718.05 1557.33 C 705.603 1565.33 675.426 1576.45 660.693 1582.52 L 525.753 1637.39 L 445.367 1669.72 C 437.138 1673.02 414.406 1682.64 406.589 1684.4 C 401.069 1685.66 395.299 1685.24 390.018 1683.2 C 377.948 1678.63 369.249 1664.97 372.493 1652.14 C 378.078 1630.07 385.064 1608.15 391.691 1586.35 L 426.919 1470.4 L 456.898 1372.95 C 462.166 1356.23 467.032 1338.96 473.809 1322.83 C 475.792 1317.93 479.132 1313.91 482.827 1310.17 C 499.786 1293 517.048 1276.11 534.055 1258.99 L 658.055 1134.7 L 1031.75 761.35 L 1275.54 517.445 L 1349.71 443.795 C 1390.61 402.758 1414.07 369.815 1476.34 364.41 z"/>
<path transform="translate(0,0)" fill="rgb(0,0,0)" d="M 1251.88 617.799 C 1258.08 622.361 1286.3 651.704 1293.85 659.208 L 1367.81 732.337 C 1383.53 747.996 1402.21 767.621 1418.64 781.97 C 1404.29 795.408 1388.28 812.299 1374.23 826.377 L 1293.19 907.325 L 1041.57 1158.91 L 821.418 1379.03 C 784.408 1416.1 738.61 1459.7 704.015 1497.68 L 598.122 1392.7 C 580.394 1375.15 554.785 1348.18 536.647 1332.78 C 555.313 1314.81 573.983 1295.26 592.461 1276.85 L 735.855 1133.64 L 1251.88 617.799 z"/>
<path transform="translate(0,0)" fill="rgb(0,0,0)" d="M 1478.84 418.399 C 1497.49 417.193 1522.88 423.544 1536.62 438.211 C 1574.1 478.202 1647.41 519.761 1610.82 584.326 C 1596.16 610.188 1562.32 634.98 1542.25 658.173 L 1541.18 659.423 L 1529.04 647.436 C 1490.92 607.314 1448.86 569.594 1410.1 529.992 C 1398.66 518.306 1386.2 506.066 1374.1 495.165 L 1408.99 460.071 C 1432 436.955 1445.39 421.747 1478.84 418.399 z"/>
<path transform="translate(0,0)" fill="rgb(0,0,0)" d="M 509.807 1382.43 C 514.587 1384.52 639.216 1511.43 655.131 1526.24 C 619.083 1539.88 581.568 1555.89 545.757 1570.49 C 509.976 1584.51 474.297 1598.79 438.721 1613.32 C 442.961 1602.74 446.933 1590.02 450.028 1579.01 C 468.461 1513.4 491.667 1447.95 509.807 1382.43 z"/>
<path transform="translate(0,0)" fill="rgb(0,0,0)" d="M 1335.64 533.651 C 1341.72 538.094 1371.09 568.431 1378.8 575.899 C 1420.34 616.147 1460.7 658.248 1502.7 698.032 C 1487.48 712.925 1472.25 727.704 1457.78 743.325 C 1448.1 736.273 1417.12 703.313 1406.35 692.985 C 1367.55 655.79 1329.62 615.323 1290.09 578.944 C 1302.51 568.319 1323.97 545.958 1335.64 533.651 z"/>
<path transform="translate(0,0)" fill="rgb(50,32,4)" d="M 6.14675 3.92014 C 11.8412 3.54434 15.2558 4.07914 17.2449 9.98197 C 16.5147 14.1387 17.3365 12.2384 14.1925 15.6398 C 9.73976 16.6905 11.0707 17.0063 7.15822 15.819 C 4.24458 11.3279 5.13012 9.473 6.14675 3.92014 z"/>
</svg>