<svg version="1.1" xmlns="http://www.w3.org/2000/svg" style="display: block;" viewBox="0 0 2048 2048" width="1024" height="1024" preserveAspectRatio="none">
<path transform="translate(0,0)" fill="rgb(0,0,0)" d="M 0 0 L 2048 0 L 2048 2048 L 0 2048 L 0 0 z"/>
<path transform="translate(0,0)" fill="rgb(254,254,254)" d="M 668.508 409.399 C 705.817 404.647 753.806 422.063 777.973 450.908 C 793.652 469.621 805.282 492.106 817.328 513.323 L 859.528 587.428 L 892.63 645.542 C 902.049 662.173 913.096 679.324 918.809 697.651 C 923.911 714.016 925.13 731.36 923.556 748.381 C 915.56 834.849 825.025 864.887 822.786 907.569 C 822.468 913.644 823.853 919.224 826.166 924.806 C 830.594 935.489 837.482 945.422 843.714 955.135 C 869.017 994.087 897.212 1031.08 928.061 1065.81 C 945.163 1085.2 963.071 1103.87 981.737 1121.76 C 1012.66 1151.1 1045.32 1178.55 1079.53 1203.97 C 1092.06 1213.13 1111.69 1229.33 1127.87 1229.58 C 1158.51 1230.06 1185.39 1186.6 1207.37 1168.48 C 1238.2 1143.07 1268.85 1129.69 1308.15 1132.08 C 1324.05 1133.07 1339.65 1136.9 1354.2 1143.39 C 1366.07 1148.7 1381.43 1158.29 1392.95 1165.08 L 1455.91 1202.32 L 1535.65 1249.08 C 1548.11 1256.43 1564.67 1265.59 1576.22 1273.6 C 1586.02 1280.37 1594.97 1288.3 1602.85 1297.23 C 1627.24 1325.28 1637.95 1360.65 1635.22 1397.52 C 1633.66 1416.69 1628.11 1435.33 1618.92 1452.23 C 1598.96 1489.4 1543.73 1542 1511.56 1569.83 C 1465.29 1607.28 1419.49 1631.61 1358.87 1637.34 C 1232.72 1649.27 1074.9 1572.52 971.832 1506.79 C 926.726 1477.73 883.405 1445.98 842.104 1411.73 C 673.051 1272.2 536.179 1093.94 456.101 888.479 C 410.413 771.253 386.304 648.46 475.13 541.306 C 502.126 509.697 533.456 482.209 565.869 456.382 C 598.398 430.463 626.443 413.088 668.508 409.399 z"/>
<path transform="translate(0,0)" fill="rgb(0,0,0)" d="M 669.537 488.22 C 670.249 488.154 670.963 488.097 671.677 488.05 C 720.113 484.919 731.161 520.658 751.548 556.625 L 791.893 627.803 L 821.381 679.666 C 826.797 689.195 835.024 702.961 839.46 712.78 C 842.728 719.965 844.474 727.748 844.588 735.64 C 845.496 796.755 739.405 814.807 743.213 912.337 C 743.71 926.162 746.664 939.787 751.936 952.577 C 757.739 966.565 768.492 982.852 776.729 995.84 C 823.162 1067.91 878.742 1133.65 942.079 1191.43 C 975.196 1221.58 1040.69 1278.35 1078.66 1296.66 C 1098.45 1306.2 1119.45 1310.44 1141.38 1308.26 C 1222.17 1300.26 1243.62 1213.14 1298.08 1211.1 C 1306.11 1210.8 1314.29 1212.02 1321.66 1215.29 C 1333.99 1220.75 1345.71 1228.74 1357.33 1235.59 L 1419.83 1272.38 L 1497.4 1318.09 C 1511.71 1326.54 1535.51 1338.3 1544.95 1350.84 C 1580.78 1398.43 1529.68 1443.44 1499.5 1474.19 C 1463.9 1510.02 1420.85 1546.37 1370.23 1555.56 C 1252.75 1576.89 1084.74 1487.86 990.455 1424.55 C 796.575 1292.83 634.557 1107.11 542.628 890.959 C 488.081 762.707 456.314 643.811 581.189 546.221 C 607.732 525.477 634.813 494.81 669.537 488.22 z"/>
</svg>