<svg version="1.1" xmlns="http://www.w3.org/2000/svg" style="display: block;" viewBox="0 0 2048 2048" width="1920" height="1920" preserveAspectRatio="none">
<path transform="translate(0,0)" fill="rgb(0,0,0)" d="M 0 0 L 2048 0 L 2048 2048 L 0 2048 L 0 0 z"/>
<path transform="translate(0,0)" fill="rgb(237,70,70)" d="M 1005.51 462.366 C 1008.67 461.852 1019.96 461.618 1023.34 461.598 C 1073.33 460.862 1121.48 480.461 1156.75 515.902 C 1181.25 540.001 1198.41 570.56 1206.23 604.027 C 1212.08 628.576 1210.25 674.935 1210.27 701.835 L 1210.21 838.935 C 1274.98 838.504 1339.76 838.433 1404.54 838.722 C 1459.87 839.085 1505.02 854.95 1544.22 895.091 C 1579 930.165 1598.01 977.873 1596.9 1027.25 C 1596.12 1076.76 1575.46 1123.88 1539.57 1157.99 C 1476.59 1218.57 1416.47 1210.27 1337.06 1210.24 C 1294.73 1210.43 1252.4 1210.31 1210.07 1209.89 C 1212.08 1260.27 1209.31 1312.57 1210.35 1363.15 C 1210.87 1388.32 1211.54 1419.27 1206.07 1443.55 C 1200.2 1470.19 1188.15 1495.09 1170.9 1516.22 C 1137.42 1557.67 1093.88 1580.19 1041.24 1585.65 C 985.679 1591.87 927.893 1569.38 889.195 1529.52 C 866.501 1506.18 850.556 1477.12 843.052 1445.44 C 836.162 1416.46 838.517 1377.79 838.345 1347.14 C 837.965 1301.52 837.964 1255.91 838.343 1210.29 C 773.173 1209.48 707.681 1211 642.484 1210.45 C 634.615 1210.39 626.891 1210.28 619.052 1209.44 C 576.429 1204.79 536.694 1185.64 506.486 1155.21 C 470.627 1119.11 451.069 1073.02 451.664 1021.95 C 452.031 973.783 471.514 927.732 505.83 893.927 C 572.395 828.823 636.159 838.396 720.947 838.61 C 760.271 838.498 799.594 838.632 838.916 839.013 C 836.915 818.926 838.762 790.51 838.63 769.487 C 838.306 739.987 838.15 710.485 838.162 680.984 C 838.191 656.127 836.888 627.111 842.798 603.148 C 862.25 524.27 926.364 471.616 1005.51 462.366 z"/>
<path transform="translate(0,0)" fill="rgb(254,254,254)" d="M 1010.77 519.385 C 1072.19 510.922 1137.46 556.827 1150.32 616.764 C 1155.57 641.254 1153.15 686.44 1153.15 712.675 L 1152.99 896.233 C 1154.33 896.195 1155.66 896.168 1157 896.153 C 1230.06 895.259 1303.28 896.491 1376.36 895.895 C 1396.55 895.73 1419.18 894.926 1438.74 899.303 C 1461.95 904.526 1483.26 916.082 1500.3 932.686 C 1552.52 984.011 1552.22 1063.38 1500.52 1114.94 C 1483.51 1131.84 1462.19 1143.74 1438.88 1149.36 C 1415.84 1154.75 1356.56 1152.97 1329.11 1152.97 L 1153.11 1152.72 L 1153.15 1326.64 C 1153.17 1337.76 1153.09 1349.26 1153.25 1360.25 C 1153.89 1403.98 1156.44 1441.76 1127.09 1477.93 C 1102.75 1507.92 1075.08 1523.95 1036.81 1528.63 C 1032.54 1528.97 1028.15 1529.33 1023.87 1529.33 C 989.13 1529.07 955.926 1514.98 931.601 1490.17 C 902.087 1460.4 895.094 1429.1 895.665 1388.75 C 896.033 1362.63 895.58 1335.91 895.725 1309.73 L 895.884 1152.98 L 723.825 1152.93 C 658.401 1152.99 596.905 1164.15 546.643 1113.91 C 522.405 1090.12 508.991 1057.42 509.537 1023.46 C 509.588 989.236 523.632 956.518 548.408 932.902 C 585.174 897.177 620.764 895.902 668.374 895.934 L 726.686 895.961 C 782.587 895.962 839.946 895.214 895.701 896.226 L 895.827 723.071 C 895.798 712.253 895.802 701.099 895.737 690.488 C 895.457 644.717 891.748 605.354 923.192 567.532 C 946.63 539.341 974.1 523.923 1010.77 519.385 z"/>
<path transform="translate(0,0)" fill="rgb(45,31,3)" d="M 5.10122 4.133 C 10.9157 3.63314 13.5192 2.52009 17.6951 6.78555 C 18.8146 10.6836 18.6013 11.1459 18.1724 15.2944 C 17.0464 15.5192 15.9146 15.7137 14.7782 15.8775 C 11.2724 16.3575 9.54952 16.4286 6.72379 14.3431 C 4.51912 10.7939 5.05449 8.53112 5.10122 4.133 z"/>
</svg>