<svg version="1.1" xmlns="http://www.w3.org/2000/svg" style="display: block;" viewBox="0 0 2048 2048" width="1920" height="1920" preserveAspectRatio="none">
<path transform="translate(0,0)" fill="rgb(0,0,0)" d="M 0 0 L 2048 0 L 2048 2048 L 0 2048 L 0 0 z"/>
<path transform="translate(0,0)" fill="rgb(254,254,254)" d="M 943.348 562.433 C 1017.95 559.846 1091.62 579.549 1154.97 619.026 C 1237.96 670.894 1296.82 753.737 1318.49 849.173 C 1340.64 946.092 1323.02 1047.85 1269.57 1131.68 C 1271.23 1133.19 1272.88 1134.72 1274.51 1136.25 C 1318.07 1177.02 1365.02 1225.63 1407.8 1268.27 L 1447.82 1307.99 C 1458.57 1318.62 1476.15 1334.35 1483.25 1346.84 C 1517.81 1407.64 1469.68 1485.07 1401.29 1486.27 C 1355.52 1487.07 1336.16 1462.06 1307.71 1433.16 C 1291.45 1416.38 1274.97 1399.81 1258.3 1383.43 C 1232.29 1358.37 1206.11 1329.96 1179.86 1304.72 C 1170.47 1295.68 1139.62 1265.21 1133.3 1256.57 C 1089.41 1281.21 1035.74 1296.38 985.529 1300.1 C 887.207 1307.24 790.037 1275.31 715.121 1211.23 C 640.145 1147.27 594.406 1055.57 588.416 957.201 C 581.562 859.764 613.65 763.589 677.636 689.788 C 748.846 608.826 836.634 569.108 943.348 562.433 z"/>
<path transform="translate(0,0)" fill="rgb(0,0,0)" d="M 932.349 597.372 C 1116.79 583.449 1277.65 721.574 1291.78 906.004 C 1305.9 1090.43 1167.96 1251.44 983.542 1265.77 C 798.84 1280.12 637.525 1141.91 623.378 957.196 C 609.23 772.479 747.617 611.316 932.349 597.372 z"/>
<path transform="translate(0,0)" fill="rgb(254,254,254)" d="M 934.342 644.105 C 1093.16 631.278 1232.29 749.659 1245.05 908.48 C 1257.82 1067.3 1139.39 1206.39 980.562 1219.09 C 821.821 1231.79 682.826 1113.44 670.067 954.7 C 657.307 795.964 775.611 656.925 934.342 644.105 z"/>
<path transform="translate(0,0)" fill="rgb(0,0,0)" d="M 937.947 678.358 C 1077.96 667.516 1200.2 772.323 1210.87 912.345 C 1221.54 1052.37 1116.58 1174.49 976.547 1184.98 C 836.756 1195.46 714.898 1090.72 704.249 950.945 C 693.599 811.167 798.183 689.18 937.947 678.358 z"/>
<path transform="translate(0,0)" fill="rgb(0,0,0)" d="M 1250.03 1159.84 C 1253.18 1162.23 1264.22 1173.67 1267.75 1177.18 L 1303.55 1212.73 L 1397.89 1306.47 C 1405.04 1313.57 1412.56 1320.62 1419.44 1327.96 C 1442.19 1352.24 1468.26 1367.08 1457.89 1405.04 C 1453.4 1421.32 1442.58 1435.14 1427.84 1443.41 C 1411.52 1452.51 1396.63 1452.98 1379.12 1448.06 C 1362.61 1441.23 1351.03 1427.12 1338.59 1414.7 C 1324.97 1401.09 1311.46 1387.36 1297.84 1373.73 L 1163.48 1239.2 C 1193.17 1221.16 1227.72 1186.51 1250.03 1159.84 z"/>
<path transform="translate(0,0)" fill="rgb(46,26,3)" d="M 4.94808 3.02764 C 10.6695 3.106 12.0792 2.39004 15.3911 7.22936 C 15.7785 11.1273 15.5466 11.5821 14.6623 15.4909 C 10.6825 16.9589 9.75539 17.61 6.3629 15.37 C 4.47757 11.6046 4.97027 7.39313 4.94808 3.02764 z"/>
</svg>