<svg version="1.1" xmlns="http://www.w3.org/2000/svg" style="display: block;" viewBox="0 0 2048 2048" width="1024" height="1024" preserveAspectRatio="none">
<path transform="translate(0,0)" fill="rgb(0,0,0)" d="M 0 0 L 2048 0 L 2048 2048 L 0 2048 L 0 0 z"/>
<path transform="translate(0,0)" fill="rgb(254,254,254)" d="M 1435.92 534.174 C 1438.29 536.725 1443.17 552.948 1445.79 557.615 C 1469.03 599.093 1504.6 616.344 1550.29 618.462 L 1404.42 1277.15 L 1355.13 1501.16 C 1348.13 1532.5 1341.6 1564.43 1334.24 1595.68 C 1331.91 1605.57 1325.84 1615.9 1318.56 1623.1 C 1307.66 1633.95 1292.84 1639.91 1277.47 1639.62 C 1247.28 1639.28 1232.36 1618.43 1213.63 1598.44 L 1174.23 1556.67 C 1120.9 1500.38 1066.45 1442.12 1012.43 1386.67 C 964.409 1433.56 917.444 1481.59 869.803 1528.85 C 859.679 1538.89 850.21 1547.3 834.923 1544.33 C 825.97 1542.58 821.012 1537.94 815.27 1531.57 C 806.419 1517.49 808.989 1497.65 809.011 1481.26 L 809.107 1417.6 L 809.112 1216.51 C 782.351 1203.04 748.301 1188.57 720.622 1175.94 L 546.458 1096.38 L 488.107 1070.02 C 477.555 1065.28 464.491 1060.18 454.766 1054.23 C 424.853 1035.95 426.129 990.327 458.101 974.354 C 471.397 967.711 485.115 961.744 498.773 955.638 L 571.098 923.208 L 803.715 818.654 L 1234.45 624.604 C 1301.17 594.588 1368.88 563.155 1435.92 534.174 z"/>
<path transform="translate(0,0)" fill="rgb(0,0,0)" d="M 1486.88 619.921 C 1487.3 628.071 1473.9 681.276 1471.49 691.874 L 1437.95 842.183 L 1329.6 1333.42 L 1293.86 1495.76 C 1288.04 1522.29 1281.35 1549.92 1276.3 1576.45 C 1255.86 1556.25 1233.29 1531.04 1213.23 1509.85 L 1098.03 1388.41 C 1077.39 1366.57 1057.1 1344.36 1036.12 1322.87 C 1027.32 1313.85 1019.89 1312.16 1007.83 1312.56 C 1002.16 1314.21 998.081 1315.79 993.655 1319.73 C 978.969 1332.81 964.592 1347.82 950.675 1361.72 C 924.068 1388.47 897.255 1415.01 870.237 1441.35 C 870.171 1365.87 869.464 1288.37 870.59 1213.03 C 907.154 1175.29 953.724 1133 992.173 1095.84 L 1265.7 832.159 L 1415.61 687.615 L 1459.92 644.731 C 1467.36 637.535 1478.89 625.845 1486.88 619.921 z"/>
<path transform="translate(0,0)" fill="rgb(0,0,0)" d="M 1398.9 618.07 L 1399.58 619.09 L 1079.29 927.054 L 912.508 1087.98 C 887.254 1112.27 861.89 1137.44 836.275 1161.23 C 816.487 1153.19 790.303 1140.16 770.02 1130.94 L 620.57 1062.91 C 587.499 1047.41 548.612 1031.48 516.877 1015.14 C 561.014 994.438 607.744 974.161 652.376 954.065 L 947.36 821.398 L 1241.27 688.652 C 1293.63 664.714 1346.17 641.186 1398.9 618.07 z"/>
<path transform="translate(0,0)" fill="rgb(220,74,72)" d="M 1541.88 432.478 C 1579.28 427.315 1613.73 453.599 1618.62 491.033 C 1623.52 528.467 1596.99 562.725 1559.52 567.352 C 1522.43 571.934 1488.59 545.729 1483.74 508.672 C 1478.9 471.615 1504.86 437.589 1541.88 432.478 z"/>
</svg>