<svg version="1.1" xmlns="http://www.w3.org/2000/svg" style="display: block;" viewBox="0 0 2048 2048" width="1920" height="1920" preserveAspectRatio="none">
<path transform="translate(0,0)" fill="rgb(0,0,0)" d="M 0 0 L 2048 0 L 2048 2048 L 0 2048 L 0 0 z"/>
<path transform="translate(0,0)" fill="rgb(254,254,254)" d="M 950.671 254.428 C 980.878 253.953 1011.9 254.406 1042.16 254.26 C 1060.53 254.172 1092.47 253.138 1109.48 256.242 C 1123.43 258.701 1136.72 263.981 1148.56 271.76 C 1190.23 299.444 1193.42 330.461 1200.94 374.575 C 1204.78 398.214 1208.96 421.799 1213.46 445.321 C 1248.41 456.552 1268.96 465.807 1302.01 481.263 C 1320.23 465.428 1341.28 451.143 1360.02 436.44 C 1396.85 408.077 1426.65 384.319 1475.7 397.234 C 1513.38 407.156 1526.93 427.732 1553.32 453.453 L 1595.26 494.975 C 1623.88 523.151 1650.67 543.554 1654.66 586.5 C 1656.2 602.499 1653.92 618.633 1648.02 633.582 C 1639.92 653.54 1614.04 684.443 1600.68 702.704 C 1591.43 715.345 1578.28 733.078 1568.37 744.916 C 1581.74 766.267 1596.53 806.439 1604.45 830.704 C 1622.27 832.489 1648.79 838.171 1667.07 841.351 C 1682.55 844.045 1710.59 848.344 1724.14 852.587 C 1733.27 855.507 1741.93 859.704 1749.88 865.054 C 1771.71 879.598 1789.27 903.795 1794.28 929.729 C 1798.51 951.677 1798.79 1089.87 1794.91 1111.88 C 1792.37 1126.23 1787.09 1139.11 1778.78 1151.11 C 1751.29 1190.79 1717.18 1195.04 1673.03 1202.82 L 1604.03 1215.14 C 1595.94 1244.01 1582.28 1273.39 1568.85 1300.1 C 1583.71 1321.25 1602.41 1343.13 1617.83 1364.25 C 1627.09 1376.93 1637.21 1388.54 1644.55 1402.68 C 1649.62 1412.36 1652.95 1422.85 1654.38 1433.68 C 1657.57 1459.04 1651.03 1489.76 1634.44 1509.26 C 1614.02 1532.29 1591.91 1554.85 1569.66 1576.26 C 1537.07 1607.62 1511.81 1645.17 1463.81 1650.77 C 1416.1 1656.34 1390.83 1632.52 1355.54 1606.08 C 1337.26 1592.57 1319.17 1578.82 1301.27 1564.83 C 1282.07 1575.85 1234.26 1595.36 1213.49 1600.74 L 1200.49 1673.03 C 1198.16 1686.25 1195.65 1705.81 1191.68 1718.1 C 1187.92 1729.5 1182.38 1740.24 1175.25 1749.91 C 1157.29 1773.96 1131.6 1787.61 1102.25 1791.98 C 1079.54 1793.88 1045.46 1792.19 1021.52 1792.58 C 996.163 1792.98 964.389 1793.67 939.502 1790.89 C 927.296 1789.53 908.881 1782.11 898.783 1774.76 C 856.738 1744.15 855.311 1716.15 847.154 1670.16 L 834.579 1600.7 C 801.241 1590.29 777.814 1580.03 746.356 1565.13 C 738.072 1573.14 718.449 1587.32 708.573 1594.16 C 678.751 1614.8 649.205 1644.95 612.298 1650.53 C 588.291 1654.08 553.015 1647.09 534.389 1630.67 C 501.074 1601.3 470.219 1567.03 438.346 1535.99 C 414.537 1512.8 398.361 1494.59 394.281 1460.34 C 388.764 1414.04 411.491 1389.06 437.407 1354.87 C 451.248 1336.57 465.309 1318.44 479.588 1300.48 C 465.355 1274.77 453.012 1242.23 443.532 1214.56 C 421.694 1211.41 398.806 1206.65 376.921 1202.92 C 361.135 1200.24 336.911 1196.9 322.338 1192 C 312.124 1188.55 302.526 1183.5 293.905 1177.02 C 271.309 1160.39 256.408 1135.32 252.595 1107.52 C 250.021 1089.4 251.245 1047.35 251.427 1027.12 C 251.703 996.544 249.903 959.675 253.933 929.855 C 255.634 917.266 265.199 898.955 273.065 888.866 C 301.753 852.069 332.378 849.235 375.214 842.05 C 398.513 838.142 420.401 833.906 444.04 830.711 C 454.339 799.404 464.096 773.904 479.433 744.796 L 435.035 686.245 C 424.588 672.371 410.326 654.686 403.034 639.435 C 398.09 629.125 395.044 618.007 394.044 606.616 C 391.702 580.884 399.171 550.902 416.859 532.016 C 434.461 514.281 452.131 494.463 470.633 477.789 C 506.958 445.052 535.764 397.711 588.731 394.07 C 605.692 392.868 622.697 395.709 638.345 402.361 C 656.546 410.214 729.514 466.729 746.295 481.363 C 777.327 465.35 801.67 456.378 834.534 445.241 C 839.222 421.585 843.563 397.861 847.556 374.077 C 850.303 357.759 852.158 337.866 858.069 322.707 C 873.795 282.372 908.622 258.191 950.671 254.428 z"/>
<path transform="translate(0,0)" fill="rgb(0,0,0)" d="M 953.755 349.248 C 966.329 347.85 1091.11 347.586 1095.5 350.204 C 1097.87 351.62 1099.47 355.494 1100.26 357.979 C 1102.81 365.915 1103.58 374.836 1105.02 383.065 L 1115.35 442.743 C 1120.31 471.825 1121.99 500.053 1147.32 519.412 C 1161.49 530.242 1177.17 533.242 1193.77 538.63 C 1204.81 542.25 1215.72 546.221 1226.5 550.537 C 1302.32 581.463 1296.7 604.924 1371.85 547.553 C 1390.11 533.643 1408.27 519.607 1426.34 505.447 C 1432.93 500.305 1444.26 490.222 1452.2 489.157 C 1455.33 490.346 1458.05 492.472 1460.41 494.849 C 1490.58 525.232 1520.96 555.34 1551.57 585.274 C 1554.9 588.531 1557.95 592.77 1560.36 596.746 C 1556.06 604.946 1542.61 621.174 1536.35 629.296 L 1493.47 685.244 C 1479.48 703.538 1465.46 719.472 1467.17 744.461 C 1469.02 771.608 1489.45 792.65 1498.03 818.14 C 1502.6 830.848 1509.42 847.143 1512.64 859.863 C 1523.33 902.115 1545.67 918.709 1587.74 924.238 C 1614.12 928.957 1639.95 933.046 1666.34 938.22 C 1679.72 941.57 1701.89 937.923 1701.64 957.399 C 1701.25 987.323 1701.43 1016.57 1701.25 1046.39 C 1701.16 1062.32 1702.23 1080.54 1699.83 1095.9 C 1698.75 1102.83 1666.24 1106.72 1659.91 1107.85 L 1593.39 1119.63 C 1582.47 1121.57 1571.04 1123.02 1560.62 1126.95 C 1550.67 1130.69 1541.17 1136.66 1533.8 1144.36 C 1516.53 1162.41 1509.06 1199.86 1499.4 1223.82 C 1490.51 1245.87 1470.63 1273.83 1467.96 1296.11 C 1466.63 1307.18 1468.12 1319.59 1472.8 1329.77 C 1482.22 1350.23 1559.97 1438.3 1558.98 1448.39 C 1558.79 1450.43 1557.65 1452.34 1556.34 1453.86 C 1541.08 1471.55 1522.85 1487.82 1506.31 1504.35 C 1490.97 1519.67 1476.08 1536.51 1459.76 1550.74 C 1457.15 1553.02 1454.15 1555.77 1450.44 1555.37 C 1439.12 1554.12 1355.83 1482.09 1332.91 1471.04 C 1325.05 1467.28 1316.52 1465.13 1307.82 1464.72 C 1280.41 1463.28 1253.66 1484.35 1226.47 1495.54 C 1205.54 1504.16 1163.17 1515.24 1148.33 1526.17 C 1139.15 1532.9 1131.84 1541.87 1127.12 1552.24 C 1121.9 1563.63 1120.78 1573.41 1118.32 1585.87 C 1111.45 1620.72 1107.81 1656.9 1099.32 1691.3 C 1098.91 1692.98 1095.89 1695.74 1094.56 1696.93 C 1087.15 1698.52 1047.33 1698.62 1038.08 1697.97 C 1017.57 1696.53 970.392 1701.16 953.163 1695.94 C 950.745 1693.98 948.679 1690.8 948.018 1687.75 C 939.161 1649.01 935.325 1609.02 927.009 1570.15 C 917.787 1527.04 889.737 1519.34 853.662 1507.3 C 842.913 1503.59 832.279 1499.57 821.774 1495.22 C 802.218 1487.15 771.227 1467.95 753.44 1465.23 C 742.366 1463.54 729.49 1464.61 719.112 1468.97 C 695.72 1478.79 608.194 1554.78 597.552 1555.64 C 594.653 1555.88 592.028 1553.86 589.967 1552.1 C 577.62 1541.57 491.991 1456.24 489.588 1448.68 C 487.275 1441.42 568.9 1345.08 576.937 1326.73 C 580.803 1317.91 581.51 1306.65 580.619 1297.12 C 578.974 1279.52 568.589 1264.74 560.772 1249.36 C 555.995 1239.73 551.51 1229.96 547.326 1220.06 C 533.869 1188.47 532.003 1152.07 499.911 1133.19 C 483.919 1123.79 470.546 1122.47 452.631 1119.36 C 433.502 1115.92 414.353 1112.59 395.184 1109.38 C 383.396 1107.47 371.097 1105.88 359.438 1103.36 C 350.613 1101.45 347.345 1097.1 347.226 1088 C 346.634 1042.67 346.644 997.148 347.394 951.829 C 347.571 941.097 373.943 939.314 381.886 937.973 L 440.36 927.876 C 464.375 923.869 488.295 922.589 507.998 907.018 C 535.41 886.529 535.106 849.4 549.314 820.762 C 553.514 812.297 557.492 800.82 562.115 792.815 C 593.152 739.086 585.33 724.438 549.707 678.312 C 537.216 661.936 524.618 645.643 511.912 629.433 C 505.675 621.421 498.161 613.144 493.173 604.294 C 491.434 601.208 489.921 597.21 490.721 593.615 C 491.072 592.04 491.873 590.774 492.939 589.6 C 508.98 571.924 527.161 555.528 544.018 538.58 C 559.088 523.428 574.395 505.352 591.356 492.353 C 592.435 491.526 595.232 489.276 596.618 489.072 C 604.414 487.927 693.59 563.219 711.656 573.34 C 719.106 577.514 727.385 580.565 735.896 581.576 C 743.838 582.519 752.863 581.707 760.465 579.248 C 771.372 575.721 781.525 569.571 791.646 564.29 C 802.28 558.611 813.233 553.552 824.451 549.136 C 870.291 530.911 917.788 530.367 927.834 472.413 C 929.328 463.795 930.953 454.982 932.443 446.336 L 942.493 386.895 C 944.255 376.026 945.173 355.9 953.755 349.248 z"/>
<path transform="translate(0,0)" fill="rgb(254,254,254)" d="M 1013.3 705.314 C 1188.78 699.282 1335.95 836.595 1342.08 1012.07 C 1348.21 1187.55 1210.98 1334.79 1035.5 1341.02 C 859.894 1347.25 712.509 1209.89 706.376 1034.27 C 700.243 858.659 837.686 711.35 1013.3 705.314 z"/>
<path transform="translate(0,0)" fill="rgb(0,0,0)" d="M 1013.68 803.022 C 1135.15 797.267 1238.29 891.081 1244.04 1012.56 C 1249.79 1134.03 1155.97 1237.16 1034.49 1242.9 C 913.027 1248.65 809.905 1154.84 804.158 1033.37 C 798.41 911.905 892.214 808.777 1013.68 803.022 z"/>
<path transform="translate(0,0)" fill="rgb(46,26,3)" d="M 4.91025 3.8136 C 10.4104 3.75531 13.4899 2.85391 16.6388 8.14264 C 17.0262 11.7611 17.222 11.7179 15.6607 15.1829 C 11.9158 16.9391 9.87198 18.3243 6.00112 16.4912 C 4.08199 12.653 4.77694 8.29113 4.91025 3.8136 z"/>
</svg>