<svg version="1.1" xmlns="http://www.w3.org/2000/svg" style="display: block;" viewBox="0 0 2048 2048" width="1920" height="1920" preserveAspectRatio="none">
<path transform="translate(0,0)" fill="rgb(0,0,0)" d="M 0 0 L 2048 0 L 2048 2048 L 0 2048 L 0 0 z"/>
<path transform="translate(0,0)" fill="rgb(254,254,253)" d="M 1024.33 459.032 C 1048.98 423.274 1072.3 382.281 1096.2 345.714 C 1107.69 328.128 1123.31 299.874 1137.23 285.265 C 1150.61 271.263 1167.17 260.691 1185.5 254.443 C 1198.61 249.976 1212.5 248.259 1226.31 249.399 C 1254.51 251.951 1296.39 259.904 1325.47 264.545 L 1485.49 289.263 L 1748.81 329.748 C 1768.61 332.903 1788.43 335.935 1808.26 338.843 C 1852.16 345.108 1903.59 343.971 1919.96 395.091 C 1924.34 409.211 1924.41 424.317 1920.15 438.475 C 1913.54 459.879 1891.04 491.562 1877.07 516.039 C 1848.57 565.946 1811.83 623.051 1784 673.602 C 1782.36 676.589 1783.06 716.298 1783.07 721.253 L 1783.09 820.96 L 1783.09 1262.51 L 1783.18 1402.21 C 1783.2 1443.84 1788.14 1484.71 1768.38 1522.72 C 1756.19 1546.42 1737.38 1566.06 1714.24 1579.27 C 1698.01 1588.46 1675.87 1594.75 1657.78 1600.58 L 1590.82 1622.27 L 1339.38 1703.31 C 1291.41 1717.59 1237.75 1735.39 1189.75 1751.08 C 1163.31 1759.8 1136.79 1768.3 1110.2 1776.58 C 1025.6 1803.49 1036.11 1807.56 952.369 1780.84 L 880.029 1757.69 L 599.574 1667.45 L 419.815 1609.55 C 375.889 1595.03 334.978 1588.96 302.03 1553.72 C 283.141 1533.52 270.843 1508.05 266.766 1480.7 C 264.782 1467.58 265.253 1452.83 265.255 1439.43 L 265.302 1383.68 L 265.191 1203.76 L 265.218 854.057 C 265.257 796.877 263.634 730.27 265.729 674.159 C 234.681 622.495 203.914 570.662 173.429 518.662 C 158.568 493.31 128.291 451.644 125.765 423.642 C 123.904 404.751 129.804 385.916 142.111 371.464 C 162.947 346.678 188.618 346.208 218.506 341.844 C 229.385 340.256 240.32 338.638 251.173 336.891 L 438.968 308.022 L 687.808 269.927 L 771.93 256.686 C 788.045 254.163 806.674 250.828 822.739 249.418 C 833.338 248.293 843.724 249.77 854.072 252.047 C 909.909 264.333 931.682 312.252 959.76 356.613 C 981.462 390.64 1002.99 424.78 1024.33 459.032 z"/>
<path transform="translate(0,0)" fill="rgb(0,0,0)" d="M 344.965 711.355 L 984.813 882.672 L 984.807 1314.11 C 984.712 1443.49 983.202 1575.07 984.944 1704.25 L 984.658 1707.39 C 981.336 1707.81 935.838 1691.42 928.661 1689.2 L 576.413 1576.21 L 454.831 1537.09 C 431.279 1529.58 407.734 1522.16 384.241 1514.42 C 369.967 1509.72 358.771 1500.53 351.382 1487.44 C 348.819 1482.91 345.795 1473.96 345.55 1468.74 C 344.381 1443.93 345.099 1418.81 345.108 1393.92 L 345.078 1237.63 L 344.965 711.355 z"/>
<path transform="translate(0,0)" fill="rgb(0,0,0)" d="M 1703.73 711.261 C 1705.59 720.172 1704.08 759.675 1704.06 770.967 L 1704.06 918.32 L 1703.99 1272.33 C 1704.02 1333.73 1704.12 1395.14 1704.01 1456.53 C 1703.96 1486.29 1689.43 1506.71 1660.95 1515.57 C 1646.01 1520.22 1630.77 1525.04 1615.88 1529.87 L 1486.72 1571.65 L 1064.18 1707.87 C 1065.7 1649.77 1064.79 1588.95 1064.82 1530.68 L 1064.87 1218.25 L 1064.78 998.657 C 1064.77 962.964 1066.19 917.74 1064.37 882.895 C 1087.79 877.356 1116.01 868.871 1139.62 862.49 L 1302.88 818.26 L 1703.73 711.261 z"/>
<path transform="translate(0,0)" fill="rgb(0,0,0)" d="M 825.651 329.341 C 831.174 328.379 840.089 330.387 844.56 333.365 C 862.026 344.999 875.894 373.73 886.96 391.322 L 938.969 473.306 C 952.713 495.383 966.422 517.744 981.135 539.047 C 994.705 558.236 1019.39 566.798 1041.7 558.98 C 1062.44 551.709 1069.77 536.881 1081.01 519.669 C 1090.64 504.929 1100.19 489.902 1109.64 474.959 L 1167.17 383.347 C 1176.81 367.812 1186.92 347.821 1200.89 335.864 C 1203.56 333.574 1212.25 328.809 1215.91 329.042 C 1229.12 329.888 1242.62 332.154 1255.77 334.115 L 1346.38 348.184 C 1449.23 364.309 1556.83 381.781 1659.71 395.696 L 1339.15 475.843 L 1251.75 497.41 C 1234.22 501.793 1213.37 506.432 1196.88 512.996 C 1175.88 522.267 1156.57 540.219 1145.66 560.278 C 1106.52 632.264 1063.39 702.982 1024.44 774.961 C 1023.11 772.353 1021.74 769.763 1020.34 767.191 C 997.136 725.187 972.287 682.511 948.645 640.66 L 921.748 592.885 C 881.273 520.386 876.877 517.625 798.105 497.931 C 768.219 490.327 738.289 482.901 708.314 475.654 L 488.08 420.318 C 455.938 412.147 421.05 404.804 389.626 395.802 L 825.651 329.341 z"/>
<path transform="translate(0,0)" fill="rgb(0,0,0)" d="M 215.191 433.532 L 598.308 529.802 L 738.172 564.769 C 749.494 567.612 822.327 584.62 826.091 589.851 C 844.494 615.425 863.019 651.327 878.809 679.503 L 939.859 788.281 C 921.829 782.728 903.299 778.191 885.096 773.141 C 834.492 759.151 783.789 745.517 732.993 732.242 L 330.499 625.304 C 292.019 561.88 254.172 496.259 215.191 433.532 z"/>
<path transform="translate(0,0)" fill="rgb(0,0,0)" d="M 1832.84 433.391 C 1831.19 438.708 1809.51 472.971 1805.22 480.162 C 1776.73 528.85 1747.64 577.19 1717.97 625.17 L 1371.08 717.64 C 1285.39 740.49 1194.77 763.187 1109.99 787.832 C 1110.74 783.124 1205.5 619.699 1214.84 601.044 C 1217.81 595.101 1225.08 587.45 1232 585.333 C 1251.7 579.31 1273.04 574.345 1293.08 569.329 L 1417.53 538.194 L 1832.84 433.391 z"/>
</svg>