<svg version="1.1" xmlns="http://www.w3.org/2000/svg" style="display: block;" viewBox="0 0 2048 2048" width="1024" height="1024" preserveAspectRatio="none">
<path transform="translate(0,0)" fill="rgb(0,0,0)" d="M 0 0 L 2048 0 L 2048 2048 L 0 2048 L 0 0 z"/>
<path transform="translate(0,0)" fill="rgb(254,254,254)" d="M 1009.4 1072.47 C 1010.97 1072.42 1012.54 1072.39 1014.12 1072.37 C 1134 1070.39 1304.12 1085.76 1393.99 1173.92 C 1449.38 1226.06 1468.89 1299.84 1478.92 1372.76 C 1485.61 1421.38 1495.26 1468.9 1456.16 1507.67 C 1443.15 1520.74 1426.6 1529.72 1408.54 1533.48 C 1392.06 1536.8 1371.18 1535.99 1353.99 1535.99 L 1287.95 1536.01 L 1040.5 1535.97 L 768.573 1536.01 L 696.094 1536.02 C 679.727 1536.02 656.838 1536.81 641.266 1533.81 C 623.34 1530.3 606.814 1521.67 593.686 1508.97 C 574.94 1490.93 563.982 1466.29 563.152 1440.29 C 562.806 1425.12 566.116 1396.13 568.204 1380.71 C 578.22 1306.73 594.791 1233.8 649.186 1178.75 C 738.934 1087.92 889.585 1075 1009.4 1072.47 z"/>
<path transform="translate(0,0)" fill="rgb(0,0,0)" d="M 977.056 1123.43 C 1012.11 1121.04 1055.71 1122.23 1090.62 1124.48 C 1182.26 1130.37 1287.95 1144.39 1358.44 1209.09 C 1402.11 1249.37 1418.93 1309.55 1427.51 1366.86 C 1433.08 1404.08 1451.58 1476.22 1396.28 1484.58 C 1384.05 1486.43 1369.47 1485.75 1357.01 1485.75 L 1293.25 1485.73 L 1072.5 1485.69 L 789.89 1485.73 L 703.715 1485.77 C 682.577 1485.76 646.359 1489.49 630.03 1475.05 C 619.887 1465.91 613.794 1453.12 613.095 1439.48 C 612.537 1429.42 615.396 1404.35 616.797 1393.82 C 624.934 1332.65 636.879 1266.09 680.066 1219.17 C 751.701 1141.35 878.371 1128.74 977.056 1123.43 z"/>
<path transform="translate(0,0)" fill="rgb(254,254,254)" d="M 1009.82 512.423 C 1073.05 506.583 1144.67 533.639 1191.81 575.22 C 1239.7 617.29 1268.95 676.631 1273.16 740.235 C 1281 871.651 1177.97 1020.95 1040.41 1029.15 C 897.705 1039.62 786.345 907.634 775.536 773.695 C 770.615 710.872 790.736 648.652 831.511 600.606 C 877.885 546.408 939.279 517.718 1009.82 512.423 z"/>
<path transform="translate(0,0)" fill="rgb(0,0,0)" d="M 1004.64 563.392 C 1009.27 562.598 1023.11 562.398 1027.94 562.478 C 1069.22 563.164 1109.31 576.405 1142.88 600.436 C 1184.42 629.836 1212.48 674.639 1220.78 724.853 C 1236.99 824.438 1170.27 943.715 1071.35 972.459 C 1063.01 974.881 1054.73 976.398 1046.17 977.739 C 1044.85 977.963 1043.52 978.157 1042.19 978.323 C 928.375 992.452 838.078 882.373 826.417 777.464 C 820.323 726.818 835.06 675.867 867.251 636.295 C 901.541 593.82 950.694 569.069 1004.64 563.392 z"/>
<path transform="translate(0,0)" fill="rgb(254,254,254)" d="M 606.5 1018.56 C 635.471 1017.13 665.787 1018.13 694.681 1019.88 C 699.821 1020.19 714.365 1020.92 719.008 1022.07 C 723.557 1023.15 727.771 1025.33 731.279 1028.42 C 741.427 1037.5 742.053 1055.6 732.097 1064.1 C 717.622 1076.46 685.951 1068.69 667.294 1068.57 C 568.129 1067.98 448.574 1069.59 369.491 1138.54 C 333.566 1171.75 318.873 1223.15 312.305 1270.15 C 309.841 1296.35 297.487 1332.92 318.677 1353.93 C 335.533 1370.64 366.162 1366.12 388.425 1366.1 L 479.216 1365.99 C 494.821 1365.67 509.911 1370.72 511.581 1388.73 C 512.17 1395.63 509.883 1402.45 505.262 1407.6 C 499.756 1413.75 493.252 1415.73 485.183 1415.8 C 449.68 1416.13 414.078 1416.07 378.573 1415.97 C 363.342 1415.93 341.987 1417.05 327.531 1413.63 C 311.906 1409.81 297.513 1402.07 285.712 1391.14 C 249.759 1358.28 254.787 1319.06 260.881 1275.47 C 269.096 1216.71 283.942 1154.53 326.213 1110.33 C 395.886 1037.48 510.704 1021.54 606.5 1018.56 z"/>
<path transform="translate(0,0)" fill="rgb(254,254,254)" d="M 1382.26 1018.55 C 1402.57 1017.31 1428.02 1017.98 1448.58 1018.81 C 1534.19 1022.25 1629.04 1035.23 1698.72 1089.16 C 1762.99 1138.92 1780.08 1213.37 1789.28 1289.62 C 1793.4 1323.67 1794.93 1352.78 1771.76 1381.54 C 1756.42 1400.77 1733.91 1412.94 1709.41 1415.25 C 1684.15 1417.77 1646.96 1414.98 1620.44 1415.95 C 1600.53 1415.41 1580.07 1416.87 1560.23 1415.57 C 1544.77 1414.56 1537.39 1403.03 1536.63 1389.09 L 1536.57 1387.71 C 1544.17 1360.68 1568.37 1365.71 1591.04 1365.81 L 1666.22 1366.14 C 1689.84 1366.21 1718.78 1370.34 1734.11 1348.97 C 1746.46 1331.74 1740.97 1303.05 1738.05 1283.11 C 1732.16 1242.8 1724.35 1200.52 1701.92 1165.85 C 1641.88 1074.33 1484.91 1065.64 1386.54 1068.49 C 1378.23 1068.69 1369.92 1069.04 1361.63 1069.56 C 1347.02 1070.58 1329.57 1074.37 1317.54 1064.8 C 1312.51 1060.86 1309.31 1055.05 1308.67 1048.69 C 1308.04 1041.87 1310.37 1035.11 1315.06 1030.11 C 1326.66 1017.56 1363.79 1019.31 1382.26 1018.55 z"/>
<path transform="translate(0,0)" fill="rgb(254,254,254)" d="M 635.535 552.416 C 649.37 551.006 670.438 553.347 683.986 555.892 C 701.734 559.225 748.669 574.425 758.247 589.78 C 761.892 595.617 762.972 602.697 761.234 609.355 C 759.701 615.324 755.796 620.839 750.438 623.931 C 735.325 632.654 719.748 621.47 705.746 615.336 C 697.976 611.888 689.926 609.11 681.683 607.032 C 642.221 597.119 597.031 604.018 562.364 625.29 C 528.624 646.434 504.751 680.204 496.073 719.065 C 467.967 842.341 595.311 982.785 718.834 903.855 C 723.366 900.705 727.609 897.967 733.209 897.192 C 740.348 896.166 747.597 898.106 753.271 902.56 C 758.177 906.421 761.597 911.99 762.17 918.306 C 764.157 940.232 737.941 951.697 721.58 959.485 C 701.806 968.897 677.812 974.68 655.994 976.196 C 607.874 979.118 560.563 962.815 524.458 930.869 C 477.631 889.827 446.7 828.586 442.563 766.387 C 438.752 712.568 456.704 659.47 492.394 619.006 C 529.879 576.833 579.878 555.843 635.535 552.416 z"/>
<path transform="translate(0,0)" fill="rgb(254,254,254)" d="M 1396.64 552.434 C 1397.45 552.39 1398.27 552.351 1399.08 552.318 C 1451.95 550.473 1503.42 569.522 1542.35 605.343 C 1581.03 641.545 1603.94 691.503 1606.12 744.44 C 1611.95 895.656 1462.19 1032.18 1317.28 954.443 C 1296.52 943.307 1272.28 927.118 1295.23 902.556 C 1300.03 897.415 1309.12 896.495 1315.61 896.877 L 1316.92 896.965 C 1324.84 899.938 1334.67 907.388 1342.68 911.501 C 1367.25 924.24 1395.11 929.052 1422.53 925.148 C 1509.37 912.783 1566.97 813.189 1554.35 730.454 C 1548.65 691.034 1527.45 655.522 1495.45 631.81 C 1455.26 602.427 1401.27 594.959 1354.22 610.758 C 1336.44 615.446 1312.32 637.021 1295.01 621.616 C 1284.09 611.908 1283.01 593.728 1294.6 584.597 C 1320.84 563.914 1364.73 554.055 1396.64 552.434 z"/>
</svg>