<svg version="1.1" xmlns="http://www.w3.org/2000/svg" style="display: block;" viewBox="0 0 2048 2048" width="1920" height="1920" preserveAspectRatio="none">
<defs>
	<linearGradient id="Gradient1" gradientUnits="userSpaceOnUse" x1="13.0099" y1="11.4004" x2="5.5601" y2="6.69672">
		<stop class="stop0" offset="0" stop-opacity="1" stop-color="rgb(48,25,4)"/>
		<stop class="stop1" offset="1" stop-opacity="1" stop-color="rgb(56,39,5)"/>
	</linearGradient>
</defs>
<path transform="translate(0,0)" fill="rgb(0,0,0)" d="M 0 0 L 2048 0 L 2048 2048 L 0 2048 L 0 0 z"/>
<path transform="translate(0,0)" fill="rgb(254,254,254)" d="M 767.162 678.258 C 769.244 678.127 771.329 678.051 773.415 678.031 C 788.624 677.955 801.719 682.907 812.511 693.89 C 820.214 701.866 825.643 711.757 828.236 722.538 C 831.003 734.216 830.212 760.017 830.231 773.254 C 830.367 798.631 830.261 824.009 829.915 849.384 L 830.76 849.364 C 888.908 848.051 950.843 849.082 1009.22 849.092 L 1331.62 849.044 L 1499.03 849.07 C 1527.22 849.069 1557.25 848.033 1585.13 850.149 C 1607.6 851.853 1630.12 868.824 1642.18 887.059 C 1651.32 900.87 1654.79 917.74 1654.7 934.22 C 1654.3 985.919 1654.96 1037.66 1654.63 1089.37 C 1654.54 1103.68 1655.33 1119.38 1652.16 1133.31 C 1648.71 1148.41 1641.1 1162.25 1630.2 1173.25 C 1601.54 1202.12 1572.99 1197.56 1535.77 1197.52 L 1444.41 1197.42 L 1111.75 1197.48 C 1017.89 1197.85 924.031 1197.7 830.174 1197.02 L 830.142 1275.4 C 830.16 1288.18 831.109 1308.36 829.11 1320.33 C 827.83 1328.21 824.961 1335.74 820.676 1342.47 C 812.405 1355.29 799.281 1364.19 784.318 1367.13 C 773.42 1369.36 754.081 1367.04 745.287 1360.63 C 725.9 1346.52 706.426 1327.52 688.409 1311.41 L 575.334 1210 L 457.846 1105.42 C 442.22 1091.33 425.28 1076.69 410.14 1062.2 C 402.195 1053.69 396.48 1042.4 394.622 1031.02 C 388.259 992.091 413.147 974.254 439.004 951.585 L 483.742 912.345 L 653.725 763.11 C 670.582 748.41 687.359 733.619 704.055 718.738 C 724.724 700.386 738.985 683.27 767.162 678.258 z"/>
<path transform="translate(0,0)" fill="rgb(0,0,0)" d="M 770.753 723.983 C 788.015 726.295 783.843 739.312 783.847 752.71 C 783.86 791.933 782.849 831.359 784.134 870.531 C 784.282 875.062 787.39 884.316 790.736 887.628 C 794.954 891.791 800.493 894.35 806.396 894.864 C 825.253 896.322 862.743 895.147 882.398 895.14 L 1035.07 895.084 L 1563.78 895.101 C 1578.22 895.226 1588.75 895.85 1599.06 907.437 C 1607.33 916.727 1607.42 930.888 1607.48 942.61 C 1607.84 998.788 1607.03 1055.44 1607.65 1111.57 C 1607.86 1129.79 1596.24 1148.27 1578.03 1150.67 C 1563.39 1152.6 1541.47 1151.62 1526.53 1151.63 L 1425.68 1151.66 C 1321.41 1151.46 1215.51 1152.68 1111.5 1151.4 L 911.939 1151.69 L 847.533 1151.51 C 834.278 1151.42 821.011 1151 807.794 1151.99 C 798.636 1151.83 785.016 1162.36 784.507 1172.41 C 782.336 1215.28 784.51 1259.26 783.515 1302.29 C 783.378 1308.23 783.452 1315.69 778.624 1319.47 C 776.682 1321.02 774.123 1321.57 771.716 1320.95 C 766.422 1319.6 622.539 1188.27 608.159 1175.53 L 477.263 1059.42 C 467.85 1050.98 451.159 1037.11 442.729 1027.52 C 436.45 1020.37 443.682 1010.62 450.22 1004.78 C 505.778 955.191 562.715 907.004 618.368 857.48 C 654.471 825.068 690.808 792.918 727.377 761.034 C 734.328 754.909 765.076 726.778 770.753 723.983 z"/>
<path transform="translate(0,0)" fill="url(#Gradient1)" d="M 7.13188 2.96378 C 12.9141 3.15923 16.402 4.0037 18.8549 9.41028 C 18.1499 13.8597 18.9402 11.7753 15.8017 15.6366 C 3.93429 19.0979 1.22104 9.61426 7.13188 2.96378 z"/>
</svg>